<svg width="348" height="335" viewBox="0 0 348 335" fill="none" xmlns="http://www.w3.org/2000/svg">
<path d="M231.612 251.177H250.904C256.02 251.177 260.927 249.413 264.545 246.273C268.163 243.132 270.195 238.873 270.195 234.432C270.195 229.991 268.163 225.732 264.545 222.591C260.927 219.451 256.02 217.687 250.904 217.687H231.612C226.495 217.687 221.588 219.451 217.971 222.591C214.353 225.732 212.32 229.991 212.32 234.432C212.32 238.873 214.353 243.132 217.971 246.273C221.588 249.413 226.495 251.177 231.612 251.177ZM347.362 251.177V117.216C347.362 103.893 341.264 91.1152 330.411 81.6942C319.557 72.2732 304.836 66.9806 289.487 66.9806H193.029V33.4903H270.195C275.312 33.4903 280.219 31.7261 283.836 28.5858C287.454 25.4454 289.487 21.1862 289.487 16.7451C289.487 12.3041 287.454 8.04486 283.836 4.90454C280.219 1.76421 275.312 0 270.195 0H77.2785C72.1621 0 67.2551 1.76421 63.6373 4.90454C60.0194 8.04486 57.9869 12.3041 57.9869 16.7451C57.9869 21.1862 60.0194 25.4454 63.6373 28.5858C67.2551 31.7261 72.1621 33.4903 77.2785 33.4903H154.445V66.9806H57.9869C42.6375 66.9806 27.9167 72.2732 17.0631 81.6942C6.20939 91.1152 0.11186 103.893 0.11186 117.216V251.177C0.141738 258.948 2.24797 266.606 6.26492 273.551C10.2819 280.495 16.1 286.536 23.2619 291.198L5.70644 306.269C3.89826 307.825 2.46307 309.677 1.48366 311.718C0.50425 313.759 0 315.947 0 318.158C0 320.368 0.50425 322.557 1.48366 324.598C2.46307 326.638 3.89826 328.49 5.70644 330.047C7.49985 331.616 9.63354 332.862 11.9844 333.712C14.3353 334.562 16.8568 335 19.4035 335C21.9503 335 24.4718 334.562 26.8227 333.712C29.1735 332.862 31.3072 331.616 33.1006 330.047L65.8964 301.413H281.577L314.373 330.047C316.167 331.616 318.3 332.862 320.651 333.712C323.002 334.562 325.523 335 328.07 335C330.617 335 333.138 334.562 335.489 333.712C337.84 332.862 339.974 331.616 341.767 330.047C343.575 328.49 345.011 326.638 345.99 324.598C346.969 322.557 347.474 320.368 347.474 318.158C347.474 315.947 346.969 313.759 345.99 311.718C345.011 309.677 343.575 307.825 341.767 306.269L324.212 291.198C331.374 286.536 337.192 280.495 341.209 273.551C345.226 266.606 347.332 258.948 347.362 251.177ZM38.6952 117.216C38.6952 112.775 40.7277 108.516 44.3456 105.375C47.9635 102.235 52.8704 100.471 57.9869 100.471H154.445V167.451H38.6952V117.216ZM308.779 251.177C308.779 255.618 306.746 259.877 303.128 263.018C299.51 266.158 294.603 267.922 289.487 267.922H57.9869C52.8704 267.922 47.9635 266.158 44.3456 263.018C40.7277 259.877 38.6952 255.618 38.6952 251.177V200.942H308.779V251.177ZM308.779 167.451H193.029V100.471H289.487C294.603 100.471 299.51 102.235 303.128 105.375C306.746 108.516 308.779 112.775 308.779 117.216V167.451ZM96.5702 251.177H115.862C120.978 251.177 125.885 249.413 129.503 246.273C133.121 243.132 135.154 238.873 135.154 234.432C135.154 229.991 133.121 225.732 129.503 222.591C125.885 219.451 120.978 217.687 115.862 217.687H96.5702C91.4537 217.687 86.5468 219.451 82.9289 222.591C79.311 225.732 77.2785 229.991 77.2785 234.432C77.2785 238.873 79.311 243.132 82.9289 246.273C86.5468 249.413 91.4537 251.177 96.5702 251.177Z" fill="#363147"/>
</svg>
