<svg width="512" height="335" viewBox="0 0 512 335" fill="none" xmlns="http://www.w3.org/2000/svg">
<path d="M456 167.5C471.5 167.5 484.708 171.582 495.625 179.745C506.542 187.908 512 197.785 512 209.375V281.161C512 282.906 511.25 284.339 509.75 285.46C508.25 286.582 506.333 287.143 504 287.143H480V299.107C480 309.077 475.333 317.552 466 324.531C456.667 331.51 445.333 335 432 335C418.667 335 407.333 331.51 398 324.531C388.667 317.552 384 309.077 384 299.107V287.143H128V299.107C128 309.077 123.333 317.552 114 324.531C104.667 331.51 93.3333 335 80 335C66.6667 335 55.3333 331.51 46 324.531C36.6667 317.552 32 309.077 32 299.107V287.143H8C5.66667 287.143 3.75 286.582 2.25 285.46C0.75 284.339 0 282.906 0 281.161V209.375C0 197.785 5.45838 187.908 16.3751 179.745C27.2915 171.582 40.4998 167.5 56 167.5H63L89.25 89.1713C93.0833 77.4563 101.75 67.6418 115.25 59.7279C128.75 51.814 143.667 47.8571 160 47.8571H192V5.98214C192 4.23735 192.75 2.80413 194.25 1.68248C195.75 0.560826 197.667 0 200 0H312C314.333 0 316.25 0.560826 317.75 1.68248C319.25 2.80413 320 4.23735 320 5.98214V47.8571H352C368.333 47.8571 383.25 51.8141 396.75 59.7281C410.25 67.6419 418.917 77.4563 422.75 89.1713L449 167.5H456ZM80 257.232C91 257.232 100.417 254.303 108.25 248.446C116.083 242.588 120 235.547 120 227.321C120 219.096 116.083 212.055 108.25 206.197C100.417 200.339 91 197.411 80 197.411C69 197.411 59.5833 200.339 51.75 206.197C43.9167 212.055 40 219.096 40 227.321C40 235.547 43.9167 242.588 51.75 248.446C59.5833 254.303 69 257.232 80 257.232ZM129 167.5H383L360.75 100.762C360.417 99.7647 359.25 98.6742 357.25 97.4901C355.25 96.3062 353.5 95.7143 352 95.7143H160C158.5 95.7143 156.75 96.3063 154.75 97.4903C152.75 98.6742 151.583 99.7647 151.25 100.762L129 167.5ZM432 257.232C443 257.232 452.417 254.303 460.25 248.446C468.083 242.588 472 235.547 472 227.321C472 219.096 468.083 212.055 460.25 206.197C452.417 200.339 443 197.411 432 197.411C421 197.411 411.583 200.339 403.75 206.197C395.917 212.055 392 219.096 392 227.321C392 235.547 395.917 242.588 403.75 248.446C411.583 254.303 421 257.232 432 257.232Z" fill="#363147"/>
</svg>
