<svg width="357" height="335" viewBox="0 0 357 335" fill="none" xmlns="http://www.w3.org/2000/svg">
<path d="M344.533 66.1031C352.124 58.7659 356.338 48.9137 356.263 38.6778C356.188 28.4418 351.83 18.6451 344.133 11.407C336.435 4.16896 326.017 0.0714432 315.131 0.000925413C304.245 -0.0695924 293.768 3.89256 285.965 11.0302L208.006 82.4067L181.199 77.2174L189.082 69.8047C189.636 69.2841 190.076 68.6661 190.375 67.9858C190.675 67.3055 190.829 66.5764 190.829 65.84C190.829 65.1037 190.675 64.3745 190.375 63.6943C190.076 63.014 189.636 62.3959 189.082 61.8754L165.229 39.4454C164.675 38.9246 164.018 38.5114 163.294 38.2295C162.571 37.9477 161.795 37.8026 161.012 37.8026C160.229 37.8026 159.454 37.9477 158.73 38.2295C158.007 38.5114 157.35 38.9246 156.796 39.4454L127.651 66.8512L0 42.1398V85.9921L130.811 153.085L100.953 180.421C92.2544 188.401 84.1773 196.958 76.7842 206.028H17.8903C16.9085 206.027 15.942 206.255 15.0764 206.691C14.2108 207.127 13.4731 207.756 12.9287 208.525L1.00186 225.347C0.237128 226.426 -0.106525 227.72 0.0293844 229.01C0.165294 230.3 0.772366 231.506 1.74728 232.422L37.5278 266.067L37.6442 265.958L0.786218 326.611C0.709051 326.738 0.6945 326.88 0.628962 327.011C0.51461 327.247 0.418742 327.491 0.342122 327.741C-0.0387632 328.803 -0.0408567 329.953 0.336158 331.017C0.389951 331.231 0.457665 331.441 0.538915 331.647C0.82449 332.283 1.23436 332.863 1.74728 333.357C2.86591 334.408 4.38214 334.999 5.96342 335C6.6396 334.986 7.31116 334.863 7.94346 334.638C8.11091 334.582 8.26632 334.521 8.42936 334.45C8.5924 334.38 8.76456 334.346 8.92182 334.261L73.429 299.599L73.3084 299.712L109.089 333.357C110.063 334.274 111.346 334.845 112.718 334.973C114.09 335.1 115.466 334.777 116.613 334.058L134.503 322.843C135.32 322.331 135.99 321.637 136.453 320.823C136.916 320.009 137.159 319.101 137.159 318.178V262.797C146.803 255.846 155.903 248.252 164.387 240.072L193.462 211.995L263.119 332.076C263.632 332.96 264.389 333.699 265.31 334.213C266.231 334.728 267.283 335 268.354 335H304.135C305.019 335 305.893 334.814 306.692 334.457C307.491 334.1 308.196 333.581 308.755 332.936C309.315 332.291 309.714 331.537 309.925 330.729C310.136 329.922 310.154 329.079 309.976 328.264L285.17 214.968L314.314 187.562C314.868 187.042 315.307 186.424 315.607 185.743C315.907 185.063 316.061 184.334 316.061 183.597C316.061 182.861 315.907 182.132 315.607 181.452C315.307 180.771 314.868 180.153 314.314 179.633L290.461 157.203C289.907 156.682 289.25 156.269 288.526 155.987C287.803 155.705 287.027 155.56 286.244 155.56C285.461 155.56 284.686 155.705 283.962 155.987C283.239 156.269 282.581 156.682 282.028 157.203L274.144 164.616L268.625 139.408L344.533 66.1031ZM161.012 51.3395L176.434 65.8402L167.214 74.5098L141.637 69.5584L161.012 51.3395ZM197.683 91.859L165.552 121.277L11.9268 78.4745V55.8956L197.683 91.859ZM58.1971 103.066L155.755 130.246L139.755 144.896L58.1971 103.066ZM21.0817 217.243H68.1972C64.5127 222.342 60.9868 227.544 57.727 232.91L57.3936 233.458L15.7545 224.757L21.0817 217.243ZM24.6597 238.111L51.197 243.656L43.692 256.005L24.6597 238.111ZM97.1442 286.855L103.042 311.811L84.0077 293.914L97.1442 286.855ZM125.232 315.177L117.237 320.187L107.984 281.031L108.57 280.716C114.275 277.651 119.809 274.336 125.232 270.871V315.177ZM155.844 232.252L155.714 232.369L153.302 230.101C152.18 229.065 150.669 228.487 149.097 228.494C147.525 228.501 146.019 229.091 144.907 230.136C143.796 231.182 143.168 232.597 143.161 234.076C143.154 235.554 143.768 236.975 144.869 238.03L147.098 240.126C133.588 251.975 118.675 262.327 102.654 270.979L41.6668 303.749L117.522 232.422C118.628 231.368 119.246 229.946 119.241 228.465C119.236 226.984 118.609 225.565 117.495 224.518C116.381 223.471 114.872 222.88 113.297 222.876C111.722 222.871 110.21 223.453 109.089 224.493L33.2323 295.822L68.0814 238.473C77.282 223.407 88.2935 209.386 100.899 196.684L103.125 198.777C104.246 199.819 105.759 200.401 107.334 200.397C108.91 200.393 110.42 199.802 111.534 198.755C112.648 197.707 113.276 196.288 113.28 194.806C113.285 193.325 112.665 191.902 111.558 190.848L109.15 188.584L109.275 188.46L118.729 179.805L121.015 181.955C122.135 182.999 123.649 183.583 125.226 183.58C126.803 183.577 128.315 182.986 129.43 181.938C130.545 180.889 131.173 179.468 131.176 177.985C131.18 176.502 130.558 175.079 129.448 174.026L127.274 171.981L136.858 163.207L138.906 165.132C139.459 165.653 140.117 166.066 140.84 166.348C141.564 166.63 142.339 166.775 143.122 166.775C143.905 166.775 144.68 166.63 145.404 166.348C146.127 166.066 146.785 165.653 147.338 165.132C147.892 164.612 148.331 163.994 148.631 163.313C148.931 162.633 149.085 161.904 149.085 161.168C149.085 160.432 148.931 159.702 148.631 159.022C148.331 158.342 147.892 157.724 147.338 157.203L145.403 155.383L154.986 146.608L156.796 148.31C157.914 149.362 159.431 149.952 161.012 149.952C162.594 149.952 164.11 149.361 165.229 148.31C166.347 147.258 166.975 145.832 166.975 144.345C166.975 142.858 166.347 141.432 165.229 140.381L163.531 138.785L173.115 130.01L174.686 131.487C175.804 132.539 177.321 133.13 178.903 133.13C180.484 133.13 182.001 132.539 183.119 131.487C184.237 130.436 184.865 129.01 184.865 127.523C184.865 126.036 184.237 124.61 183.119 123.558L181.66 122.187L191.244 113.412L192.576 114.665C193.695 115.716 195.211 116.307 196.793 116.307C198.374 116.307 199.891 115.716 201.009 114.665C202.127 113.614 202.756 112.187 202.756 110.7C202.756 109.213 202.127 107.787 201.009 106.736L199.789 105.588L209.373 96.8137L210.467 97.8425C211.585 98.894 213.102 99.4847 214.683 99.4847C216.265 99.4847 217.781 98.894 218.899 97.8425C220.018 96.791 220.646 95.3649 220.646 93.8779C220.646 92.3908 220.018 90.9647 218.899 89.9132L217.918 88.9901L227.5 80.2168L228.354 81.02C229.475 82.0623 230.988 82.6453 232.564 82.6416C234.14 82.6379 235.651 82.0478 236.766 81.0002C237.88 79.9525 238.509 78.5326 238.514 77.0506C238.519 75.5686 237.9 74.1449 236.792 73.0907L236.048 72.3904L245.629 63.6188L246.244 64.1975C247.365 65.2399 248.878 65.8228 250.454 65.8191C252.03 65.8154 253.541 65.2253 254.656 64.1777C255.771 63.1301 256.399 61.7101 256.404 60.2281C256.409 58.7461 255.79 57.3224 254.682 56.2682L254.177 55.7925L263.759 47.0191L264.138 47.3747C265.26 48.4105 266.771 48.9878 268.343 48.9811C269.915 48.9744 271.421 48.3842 272.532 47.339C273.644 46.2937 274.271 44.8779 274.279 43.3997C274.286 41.9215 273.672 40.5004 272.57 39.4457L272.304 39.1955L294.287 19.0693C299.843 13.9885 307.303 11.1686 315.053 11.2195C322.803 11.2705 330.22 14.1882 335.7 19.3416C341.18 24.4949 344.283 31.4696 344.336 38.7572C344.39 46.0447 341.391 53.0592 335.987 58.2834L314.585 78.9526L314.314 78.6982C313.193 77.6624 311.681 77.0851 310.109 77.0918C308.537 77.0985 307.032 77.6887 305.92 78.7339C304.808 79.7792 304.181 81.195 304.174 82.6732C304.166 84.1514 304.78 85.5725 305.882 86.6272L306.264 86.9869L296.934 95.9974L296.427 95.5203C295.307 94.478 293.793 93.895 292.217 93.8988C290.641 93.9025 289.131 94.4926 288.016 95.5402C286.901 96.5878 286.272 98.0077 286.267 99.4898C286.262 100.972 286.881 102.395 287.989 103.45L288.611 104.035L279.283 113.044L278.537 112.343C277.417 111.301 275.903 110.718 274.327 110.721C272.751 110.725 271.241 111.315 270.126 112.363C269.011 113.41 268.382 114.83 268.377 116.312C268.372 117.794 268.991 119.218 270.099 120.272L270.96 121.082L261.63 130.092L260.643 129.166C259.522 128.13 258.01 127.553 256.438 127.559C254.866 127.566 253.361 128.156 252.249 129.201C251.137 130.247 250.51 131.662 250.503 133.141C250.496 134.619 251.11 136.04 252.211 137.095L253.31 138.128L243.978 147.139L242.753 145.988C241.631 144.952 240.12 144.375 238.548 144.382C236.976 144.388 235.47 144.979 234.359 146.024C233.247 147.069 232.62 148.485 232.612 149.963C232.605 151.441 233.219 152.862 234.321 153.917L235.658 155.174L226.326 164.186L224.863 162.81C223.745 161.759 222.228 161.168 220.647 161.168C219.065 161.168 217.549 161.759 216.431 162.81C215.312 163.862 214.684 165.288 214.684 166.775C214.684 168.262 215.312 169.688 216.431 170.74L218.006 172.221L208.675 181.233L206.973 179.633C205.851 178.597 204.34 178.02 202.768 178.027C201.196 178.033 199.69 178.624 198.578 179.669C197.467 180.714 196.839 182.13 196.832 183.608C196.825 185.086 197.439 186.507 198.54 187.562L200.354 189.268L191.023 198.28L189.082 196.456C187.961 195.42 186.449 194.842 184.877 194.849C183.305 194.856 181.8 195.446 180.688 196.491C179.576 197.537 178.949 198.952 178.942 200.431C178.935 201.909 179.548 203.33 180.65 204.385L182.702 206.315L173.371 215.326L171.192 213.278C170.074 212.226 168.557 211.636 166.976 211.636C165.395 211.636 163.878 212.226 162.76 213.278C161.641 214.329 161.013 215.755 161.013 217.242C161.013 218.729 161.641 220.156 162.76 221.207L165.051 223.361L155.844 232.252ZM217.75 188.539L246.657 280.278L202.169 203.586L217.75 188.539ZM272.808 323.785L227.289 179.327L258.574 149.114L296.817 323.785H272.808ZM286.244 169.097L301.665 183.598L282.29 201.816L277.024 177.767L286.244 169.097Z" fill="#363147"/>
<path d="M312.707 32.1952C315.504 32.5621 318.04 33.9372 319.779 36.03C321.518 38.1228 322.323 40.7693 322.025 43.4102C322.025 44.8974 322.653 46.3237 323.772 47.3753C324.89 48.4269 326.407 49.0177 327.988 49.0177C329.57 49.0177 331.087 48.4269 332.205 47.3753C333.323 46.3237 333.952 44.8974 333.952 43.4102C334.271 37.7929 332.218 32.2844 328.239 28.0836C324.26 23.8829 318.678 21.3298 312.707 20.9802C311.125 20.9802 309.609 21.571 308.49 22.6226C307.372 23.6742 306.744 25.1005 306.744 26.5877C306.744 28.0749 307.372 29.5012 308.49 30.5528C309.609 31.6044 311.125 32.1952 312.707 32.1952ZM165.229 187.562L293.442 67.0009C294.544 65.9462 295.158 64.5252 295.151 63.047C295.143 61.5687 294.516 60.153 293.404 59.1077C292.293 58.0624 290.787 57.4722 289.215 57.4655C287.643 57.4588 286.132 58.0362 285.01 59.0719L156.796 179.633C156.234 180.152 155.787 180.77 155.481 181.453C155.175 182.135 155.015 182.868 155.012 183.608C155.008 184.349 155.16 185.083 155.46 185.767C155.76 186.452 156.201 187.075 156.758 187.598C157.315 188.122 157.977 188.537 158.705 188.818C159.433 189.1 160.214 189.244 161.001 189.24C161.789 189.237 162.568 189.087 163.293 188.799C164.019 188.511 164.677 188.09 165.229 187.562Z" fill="#363147"/>
</svg>
