<svg width="512" height="335" viewBox="0 0 512 335" fill="none" xmlns="http://www.w3.org/2000/svg">
<g clip-path="url(#clip0_31_6)">
<path d="M289.117 35.764L272.74 34.2068L265.416 24.4965C264.549 23.3471 263.207 22.3791 261.543 21.7025C259.879 21.0258 257.959 20.6672 256 20.6673C254.041 20.6673 252.121 21.0259 250.457 21.7026C248.793 22.3793 247.451 23.3471 246.584 24.4965L239.26 34.2068L222.883 35.7637C220.944 35.948 219.122 36.4836 217.624 37.3098C216.126 38.1361 215.012 39.2201 214.406 40.4393C213.801 41.6585 213.728 42.9643 214.198 44.2089C214.667 45.4535 215.66 46.5874 217.062 47.4822L228.914 55.0405L226.117 65.7121C225.78 66.9764 225.992 68.2773 226.728 69.4668C227.465 70.6562 228.696 71.6868 230.283 72.4412C231.87 73.1956 233.748 73.6438 235.705 73.7347C237.661 73.8256 239.618 73.5556 241.352 72.9554L256 67.9165L270.648 72.9554C272.383 73.5519 274.337 73.8191 276.291 73.7267C278.245 73.6343 280.121 73.186 281.706 72.4325C283.291 71.679 284.522 70.6503 285.26 69.4629C285.999 68.2754 286.214 66.9765 285.883 65.7131L283.086 55.0405L294.938 47.4819C296.341 46.587 297.333 45.4531 297.803 44.2085C298.272 42.9639 298.199 41.6583 297.594 40.4392C296.988 39.2201 295.873 38.1361 294.375 37.3099C292.877 36.4837 291.056 35.9482 289.117 35.764ZM270.92 49.0937C269.701 49.8711 268.79 50.8307 268.264 51.8899C267.738 52.9492 267.614 54.0761 267.902 55.1737L269.558 61.4921L260.887 58.5091C259.38 57.9907 257.703 57.7198 256 57.7198C254.297 57.7198 252.62 57.9907 251.113 58.5091L242.442 61.4921L244.098 55.1744C244.386 54.0765 244.262 52.9493 243.736 51.8898C243.21 50.8304 242.298 49.8705 241.079 49.093L234.062 44.6184L243.759 43.6967C245.443 43.5367 247.043 43.111 248.421 42.4563C249.798 41.8016 250.911 40.9375 251.664 39.9386L256 34.1899L260.335 39.937C261.088 40.9364 262.201 41.8008 263.579 42.4558C264.957 43.1108 266.557 43.5367 268.242 43.6967L277.938 44.6184L270.92 49.0937ZM183.008 35.764L166.631 34.2068L159.307 24.4965C158.439 23.3471 157.098 22.3791 155.434 21.7024C153.77 21.0258 151.85 20.6672 149.89 20.6673C147.931 20.6673 146.011 21.0259 144.347 21.7026C142.683 22.3793 141.342 23.3471 140.475 24.4965L133.15 34.2068L116.773 35.7637C114.835 35.948 113.013 36.4836 111.515 37.3099C110.017 38.1362 108.902 39.2203 108.297 40.4395C107.692 41.6587 107.62 42.9644 108.089 44.209C108.559 45.4536 109.551 46.5874 110.954 47.4822L122.805 55.0402L120.008 65.7121C119.671 66.9764 119.883 68.2772 120.619 69.4667C121.356 70.6562 122.587 71.6867 124.174 72.4412C125.761 73.1956 127.639 73.6437 129.596 73.7346C131.552 73.8255 133.508 73.5556 135.242 72.9554L149.891 67.9166L164.539 72.9554C166.273 73.552 168.228 73.8192 170.182 73.7267C172.136 73.6343 174.012 73.186 175.597 72.4325C177.182 71.679 178.413 70.6504 179.151 69.4629C179.889 68.2755 180.105 66.9766 179.773 65.7131L176.977 55.0409L188.829 47.4819C190.232 46.587 191.224 45.4531 191.693 44.2085C192.162 42.9639 192.09 41.6583 191.484 40.4392C190.879 39.2201 189.764 38.1361 188.266 37.3099C186.768 36.4837 184.947 35.9482 183.008 35.764ZM164.812 49.0937C163.593 49.871 162.681 50.8307 162.155 51.8899C161.629 52.9491 161.505 54.0761 161.793 55.1737L163.448 61.4921L154.777 58.5091C153.271 57.9905 151.594 57.7196 149.891 57.7196C148.189 57.7196 146.512 57.9905 145.005 58.5091L136.333 61.4921L137.988 55.1744C138.277 54.0765 138.152 52.9493 137.626 51.8899C137.101 50.8304 136.189 49.8706 134.97 49.093L127.954 44.6184L137.649 43.6967C139.334 43.5367 140.934 43.111 142.311 42.4563C143.688 41.8016 144.802 40.9375 145.555 39.9386L149.891 34.1899L154.229 39.9409C154.982 40.9391 156.096 41.8026 157.472 42.4568C158.849 43.1111 160.449 43.5366 162.133 43.6967L171.828 44.6187L164.812 49.0937ZM372.5 305.557H435.5C439.875 305.553 444.068 304.415 447.162 302.391C450.255 300.367 451.995 297.623 452 294.761V249.614C451.995 246.752 450.255 244.008 447.162 241.984C444.068 239.96 439.875 238.822 435.5 238.818H372.5C368.125 238.822 363.932 239.96 360.838 241.984C357.745 244.008 356.005 246.752 356 249.614V294.761C356.005 297.623 357.745 300.367 360.838 302.391C363.932 304.415 368.125 305.553 372.5 305.557ZM411.5 248.633H435.5C435.898 248.633 436.279 248.737 436.56 248.921C436.841 249.105 437 249.354 437 249.614V267.28H411.5V248.633ZM411.5 277.095H437V294.761C437 295.021 436.841 295.27 436.56 295.454C436.279 295.638 435.898 295.742 435.5 295.742H411.5V277.095ZM371 249.614C371 249.354 371.159 249.105 371.44 248.921C371.721 248.737 372.102 248.633 372.5 248.633H396.5V267.28H371V249.614ZM371 277.095H396.5V295.742H372.5C372.102 295.742 371.721 295.638 371.44 295.454C371.159 295.27 371 295.021 371 294.761V277.095ZM497.5 132.822C501.344 132.819 505.03 131.819 507.748 130.04C510.466 128.262 511.996 125.85 512 123.335V112.866C511.996 110.351 510.466 107.939 507.748 106.161C505.03 104.382 501.344 103.382 497.5 103.379H405.305V93.5645H415.5C421.465 93.56 427.184 92.0076 431.402 89.2477C435.621 86.4878 437.993 82.7458 438 78.8428V14.7217C437.993 10.8186 435.621 7.07666 431.402 4.31676C427.184 1.55687 421.465 0.0044229 415.5 0L96.5 0C90.5347 0.0044229 84.8157 1.55687 80.5976 4.31676C76.3795 7.07666 74.0068 10.8186 74 14.7217V78.8428C74.0068 82.7458 76.3795 86.4878 80.5976 89.2477C84.8157 92.0076 90.5347 93.56 96.5 93.5645H106.695V103.379H14.5C10.6557 103.382 6.97015 104.382 4.25183 106.161C1.53351 107.939 0.00441728 110.351 0 112.866L0 123.335C0.00441728 125.85 1.53351 128.262 4.25183 130.04C6.97015 131.819 10.6557 132.819 14.5 132.822H15V325.186H7.5C5.51088 325.186 3.60322 325.703 2.1967 326.623C0.790176 327.543 0 328.791 0 330.093C0 331.394 0.790176 332.642 2.1967 333.563C3.60322 334.483 5.51088 335 7.5 335H504.5C506.489 335 508.397 334.483 509.803 333.563C511.21 332.642 512 331.394 512 330.093C512 328.791 511.21 327.543 509.803 326.623C508.397 325.703 506.489 325.186 504.5 325.186H497V132.822H497.5ZM96.5 83.75C94.5115 83.7486 92.6051 83.2311 91.1991 82.3111C89.793 81.3912 89.0022 80.1438 89 78.8428V14.7217C89.0022 13.4206 89.793 12.1733 91.1991 11.2533C92.6051 10.3333 94.5115 9.81587 96.5 9.81445H415.5C417.488 9.81587 419.395 10.3333 420.801 11.2533C422.207 12.1733 422.998 13.4206 423 14.7217V78.8428C422.998 80.1438 422.207 81.3912 420.801 82.3111C419.395 83.2311 417.488 83.7486 415.5 83.75H96.5ZM390.305 93.5645V103.379H372.305V93.5645H390.305ZM357.305 93.5645V103.379H154.695V93.5645H357.305ZM139.695 93.5645V103.379H121.695V93.5645H139.695ZM302.5 325.186H209.5V253.54C209.502 252.239 210.293 250.992 211.699 250.072C213.105 249.152 215.012 248.634 217 248.633H295C296.988 248.634 298.895 249.152 300.301 250.072C301.707 250.992 302.498 252.239 302.5 253.54V325.186ZM482 325.186H317.5V253.54C317.493 249.637 315.12 245.895 310.902 243.135C306.684 240.375 300.965 238.823 295 238.818H217C211.035 238.823 205.316 240.375 201.098 243.135C196.88 245.895 194.507 249.637 194.5 253.54V325.186H30V132.822H482V325.186ZM15 123.008V113.193H497V123.008H15ZM224.5 219.189H287.5C291.875 219.186 296.068 218.048 299.162 216.024C302.255 214 303.995 211.256 304 208.394V163.247C303.995 160.385 302.255 157.641 299.162 155.617C296.068 153.593 291.875 152.454 287.5 152.451H224.5C220.125 152.454 215.932 153.593 212.838 155.617C209.745 157.641 208.005 160.385 208 163.247V208.394C208.005 211.256 209.745 214 212.838 216.024C215.932 218.048 220.125 219.186 224.5 219.189ZM263.5 162.266H287.5C287.898 162.266 288.279 162.369 288.56 162.553C288.841 162.737 289 162.987 289 163.247V180.913H263.5V162.266ZM263.5 190.728H289V208.394C289 208.654 288.841 208.903 288.56 209.087C288.279 209.271 287.898 209.375 287.5 209.375H263.5V190.728ZM223 163.247C223 162.987 223.159 162.737 223.44 162.553C223.721 162.369 224.102 162.266 224.5 162.266H248.5V180.913H223V163.247ZM223 190.728H248.5V209.375H224.5C224.102 209.375 223.721 209.271 223.44 209.087C223.159 208.903 223 208.654 223 208.394V190.728ZM76.5 219.189H139.5C143.875 219.186 148.068 218.048 151.162 216.024C154.255 214 155.995 211.256 156 208.394V163.247C155.995 160.385 154.255 157.641 151.162 155.617C148.068 153.593 143.875 152.454 139.5 152.451H76.5C72.1255 152.454 67.9316 153.593 64.8383 155.617C61.745 157.641 60.005 160.385 60 163.247V208.394C60.0051 211.256 61.7451 214 64.8384 216.024C67.9316 218.048 72.1255 219.186 76.5 219.189ZM115.5 162.266H139.5C139.898 162.266 140.279 162.369 140.56 162.553C140.841 162.737 141 162.987 141 163.247V180.913H115.5V162.266ZM115.5 190.728H141V208.394C141 208.654 140.841 208.903 140.56 209.087C140.279 209.271 139.898 209.375 139.5 209.375H115.5V190.728ZM75 163.247C75.0004 162.987 75.1586 162.737 75.4398 162.553C75.721 162.369 76.1023 162.266 76.5 162.266H100.5V180.913H75V163.247ZM75 190.728H100.5V209.375H76.5C76.1023 209.375 75.721 209.271 75.4398 209.087C75.1586 208.903 75.0004 208.654 75 208.394V190.728ZM372.5 219.189H435.5C439.875 219.186 444.068 218.048 447.162 216.024C450.255 214 451.995 211.256 452 208.394V163.247C451.995 160.385 450.255 157.641 447.162 155.617C444.068 153.593 439.875 152.454 435.5 152.451H372.5C368.125 152.454 363.932 153.593 360.838 155.617C357.745 157.641 356.005 160.385 356 163.247V208.394C356.005 211.256 357.745 214 360.838 216.024C363.932 218.048 368.125 219.186 372.5 219.189ZM411.5 162.266H435.5C435.898 162.266 436.279 162.369 436.56 162.553C436.841 162.737 437 162.987 437 163.247V180.913H411.5V162.266ZM411.5 190.728H437V208.394C437 208.654 436.841 208.903 436.56 209.087C436.279 209.271 435.898 209.375 435.5 209.375H411.5V190.728ZM371 163.247C371 162.987 371.159 162.737 371.44 162.553C371.721 162.369 372.102 162.266 372.5 162.266H396.5V180.913H371V163.247ZM371 190.728H396.5V209.375H372.5C372.102 209.375 371.721 209.271 371.44 209.087C371.159 208.903 371 208.654 371 208.394V190.728ZM76.5 305.557H139.5C143.875 305.553 148.068 304.415 151.162 302.391C154.255 300.367 155.995 297.623 156 294.761V249.614C155.995 246.752 154.255 244.008 151.162 241.984C148.068 239.96 143.875 238.822 139.5 238.818H76.5C72.1255 238.822 67.9316 239.96 64.8384 241.984C61.7451 244.008 60.0051 246.752 60 249.614V294.761C60.0051 297.623 61.7451 300.367 64.8384 302.391C67.9316 304.415 72.1255 305.553 76.5 305.557ZM115.5 248.633H139.5C139.898 248.633 140.279 248.737 140.56 248.921C140.841 249.105 141 249.354 141 249.614V267.28H115.5V248.633ZM115.5 277.095H141V294.761C141 295.021 140.841 295.27 140.56 295.454C140.279 295.638 139.898 295.742 139.5 295.742H115.5V277.095ZM75 249.614C75.0004 249.354 75.1586 249.105 75.4398 248.921C75.721 248.737 76.1023 248.633 76.5 248.633H100.5V267.28H75V249.614ZM75 277.095H100.5V295.742H76.5C76.1023 295.742 75.721 295.638 75.4398 295.454C75.1586 295.27 75.0004 295.021 75 294.761V277.095ZM395.227 36.0911L378.85 34.534L371.525 24.8237C370.658 23.6743 369.316 22.7062 367.652 22.0296C365.988 21.353 364.068 20.9944 362.109 20.9944C360.15 20.9944 358.23 21.3531 356.566 22.0298C354.902 22.7065 353.561 23.6743 352.693 24.8237L345.369 34.534L328.992 36.0908C327.053 36.2751 325.232 36.8107 323.734 37.637C322.236 38.4633 321.121 39.5473 320.515 40.7665C319.91 41.9857 319.838 43.2914 320.307 44.536C320.777 45.7806 321.769 46.9145 323.172 47.8094L335.023 55.368L332.227 66.0393C331.89 67.3036 332.101 68.6044 332.838 69.7939C333.574 70.9834 334.806 72.0139 336.393 72.7684C337.979 73.5228 339.858 73.9709 341.814 74.0618C343.771 74.1527 345.727 73.8827 347.461 73.2826L362.109 68.2437L376.758 73.2826C378.492 73.8791 380.447 74.1463 382.401 74.0539C384.355 73.9615 386.23 73.5132 387.816 72.7597C389.401 72.0062 390.632 70.9775 391.37 69.7901C392.108 68.6026 392.324 67.3037 391.992 66.0403L389.195 55.3674L401.045 47.8097C402.448 46.915 403.441 45.7813 403.911 44.5367C404.38 43.2921 404.309 41.9863 403.703 40.767C403.098 39.5478 401.983 38.4636 400.485 37.6373C398.987 36.811 397.166 36.2754 395.227 36.0911ZM377.029 49.4208C375.811 50.1982 374.899 51.1579 374.373 52.2171C373.848 53.2763 373.724 54.4033 374.012 55.5009L375.667 61.8192L366.995 58.8362C365.488 58.3179 363.811 58.0471 362.109 58.0471C360.406 58.0471 358.73 58.3179 357.223 58.8362L348.552 61.8192L350.207 55.5015C350.495 54.4036 350.371 53.2764 349.845 52.2169C349.319 51.1575 348.407 50.1977 347.188 49.4202L340.172 44.9459L349.869 44.0238C351.553 43.8634 353.153 43.4375 354.53 42.7828C355.907 42.1282 357.02 41.2644 357.773 40.2658L362.109 34.517L366.444 40.2642C367.197 41.2635 368.311 42.128 369.688 42.783C371.066 43.438 372.666 43.8638 374.352 44.0238L384.046 44.9455L377.029 49.4208Z" fill="#363147"/>
</g>
<defs>
<clipPath id="clip0_31_6">
<rect width="512" height="335" fill="white"/>
</clipPath>
</defs>
</svg>
