<svg width="356" height="335" viewBox="0 0 356 335" fill="none" xmlns="http://www.w3.org/2000/svg">
<path d="M280.402 257.225L279.245 255.716L279.828 255.15L280.412 254.584C290.815 251.683 300.655 247.918 309.709 243.374C318.454 238.901 324.311 232.374 327.332 223.743L329.533 216.839V38.4856C329.533 34.1807 327.649 29.715 323.932 25.1725C320.236 20.5673 315.521 16.3786 309.955 12.754C304.405 9.10392 298.115 6.01828 291.277 3.59208C284.355 1.18804 277.76 0 271.421 0H84.3878C78.4179 0 71.977 1.11816 65.0854 3.40339C58.1717 5.69405 51.7777 8.65263 46.1005 12.1879C40.4512 15.635 35.646 19.6764 31.8669 24.1592C28.1395 28.6668 26.2656 33.0136 26.2656 37.3674V218.376C26.2656 221.423 27.4432 224.603 29.6141 227.901C31.8669 231.214 34.6522 234.31 37.9904 237.203C41.3286 240.18 45.0048 242.843 48.9165 245.24C52.8282 247.637 56.6272 249.622 60.3648 251.138C62.167 251.655 65.4746 252.452 70.1645 253.465C74.752 254.472 76.9024 255.219 76.5542 255.709L0 335H44.6566L100.536 279.728H254.7L310.518 335H355.758L280.402 257.225ZM133.489 15.2279C133.489 13.949 134.38 12.6422 136.284 11.2095C138.117 9.81882 139.971 9.14793 141.865 9.14793H213.361C214.077 9.14793 215.624 9.63712 217.846 10.6365C220.047 11.6568 221.164 12.6701 221.164 13.6835V32.3567C221.164 33.6356 220.221 34.8096 218.388 35.781C216.504 36.8293 214.804 37.3604 213.371 37.3604H141.332L139.059 36.1514C137.738 35.5488 136.525 34.8428 135.444 34.0479C134.849 33.7004 134.367 33.2713 134.03 32.7886C133.693 32.3058 133.509 31.7801 133.489 31.2455V15.2279ZM61.4298 67.4459C61.4298 64.909 62.3104 62.4211 63.959 59.9961C65.6179 57.5851 67.7786 55.3837 70.3795 53.3221C73.001 51.2815 76.073 49.6811 79.575 48.4022C82.9329 47.1576 86.6902 46.4997 90.5114 46.4874H264.212C267.51 46.4874 270.868 47.0185 274.217 47.9829C277.576 49.0033 280.637 50.4289 283.453 52.19C286.259 53.9511 288.461 55.9079 290.161 57.9345C291.82 59.9193 292.639 62.0997 292.639 64.3849V104.799C292.639 107.092 291.738 109.258 289.874 111.438C288.002 113.656 285.539 115.616 282.614 117.218C279.718 118.815 276.522 120.14 273.111 121.159C269.982 122.18 266.555 122.706 263.086 122.697H91.6275L88.8013 122.354C87.6407 122.173 86.5114 121.908 85.4323 121.565C79.1347 120.824 73.5642 118.525 68.7104 114.702C63.8566 110.886 61.4298 106.707 61.4298 102.144V67.4459ZM113.132 224.868C107.366 228.929 100.147 230.955 91.6275 230.955C83.0566 230.955 76.0627 228.929 70.6355 224.868C65.2493 220.815 62.5562 215.825 62.5562 209.976C62.5562 204.644 65.3619 200.024 70.9632 196.097C76.5338 192.148 83.4253 190.15 91.6275 190.15C100.147 190.15 107.356 192.037 113.132 195.664C118.907 199.388 121.784 204.231 121.784 210.374C121.784 215.972 118.907 220.815 113.132 224.868ZM241.019 224.868C235.264 220.815 232.335 215.825 232.335 209.976C232.335 204.12 235.397 199.388 241.551 195.664C247.482 192.065 255.161 190.1 263.096 190.15C271.596 190.15 278.62 192.141 284.017 196.097C289.393 200.024 292.137 204.651 292.137 209.976C292.137 215.825 289.321 220.815 283.74 224.868C278.118 228.929 271.084 230.955 262.482 230.955C253.942 230.955 246.774 228.929 241.019 224.868Z" fill="#363147"/>
</svg>
