<svg xmlns="http://www.w3.org/2000/svg" viewBox="0 0 200 150"><defs><style>.cls-1{fill:#e1ebf8;}.cls-2{fill:#5a489b;}.cls-3{fill:#9286bd;}.cls-4{fill:#c9c3de;}.cls-5{fill:#dedaeb;}.cls-6{fill:#b3aad1;}.cls-7{fill:#69697f;}.cls-8{fill:#454560;}.cls-9{fill:#73cec6;}.cls-10{fill:#3269b2;}.cls-11{fill:#bab2d5;}.cls-12{fill:#5490a5;}.cls-13{fill:#254a95;}.cls-14{fill:#f9b450;}</style></defs><title>Privacy Policy</title><g id="Layer_2" data-name="Layer 2"><path class="cls-1" d="M142.79,134.18s-11.58-.94-23.55-1.1c-11.76-.16-15.43.19-24,.34s-18.16.13-27.88.7-12.24.53-13,2.17c-.92,2.16,3.56,4.41,26.78,4.81s22.42.61,28.88.56c6.16,0,13-.11,19-.59s19.81-.12,22.2-3.83C152.8,134.8,142.79,134.18,142.79,134.18Z"/><path class="cls-2" d="M109.68,85.68H57v50.26a2.43,2.43,0,0,0,2.43,2.43h47.83a2.43,2.43,0,0,0,2.43-2.43V85.68"/><path class="cls-2" d="M144.61,59.81l.13,6.76a1.7,1.7,0,0,1-.17.73L133.85,89.64a2.45,2.45,0,0,1-2.2,1.38h-10l-12-12.71,34.93-18.5"/><path class="cls-3" d="M88.12,85.68H65.56S78.62,112.07,109.68,125V86.19L88,85.83l.08-.15"/><path class="cls-4" d="M88,85.83l14.84-27A1.63,1.63,0,0,1,104.3,58H143a1.62,1.62,0,0,1,1.45,2.34L131.51,86.56,88,85.83"/><polyline class="cls-5" points="101.25 61.8 88.12 85.68 101.25 61.8 101.25 61.8"/><polyline class="cls-2" points="134.43 80.63 131.5 86.56 134.43 80.63 134.43 80.63"/><path class="cls-6" d="M101.25,61.8,88.12,85.68l-.08.15,43.47.73,2.92-5.93c-3.23-.88-7.16-2.12-11.91-3.87-11.9-4.4-18.21-10.79-21.27-15"/><path class="cls-7" d="M121.59,78.29c1.64,2.61,1.21,5.87.48,8.27h2.55c.83-3.19,1.08-7.45-1.89-10.8l-.32-.33a9.31,9.31,0,0,0-.63-5.09A8.55,8.55,0,0,0,118,66.25a9.63,9.63,0,0,0,.13-1.88,8,8,0,0,0-4.48-6.84,11,11,0,0,0-.3-3.82c-1-3.81-3.59-6.49-7-7.15l-.47,2.38A6.83,6.83,0,0,1,111,54.31a8.37,8.37,0,0,1,.27,2.29l-.7-.16c-4.52-.9-8.76.83-10.31,4.21-1.25,2.73-.53,4.05.3,4.68,2.45,1.88,8.28-1,10.85-3.13A6.11,6.11,0,0,0,113,60a5.4,5.4,0,0,1,2.67,4.48,5.85,5.85,0,0,1,0,.84A10.67,10.67,0,0,0,111.5,65c-3.43.47-5.8,2.6-6.2,5.55a3.43,3.43,0,0,0,1.27,3.55c1.38.94,3.56.76,5.84-.49a11.7,11.7,0,0,0,4.82-5,6.08,6.08,0,0,1,2.32,2.7,6.56,6.56,0,0,1,.52,2.57,5.59,5.59,0,0,0-3.22-.2,7.78,7.78,0,0,0-5.41,5.22,4.22,4.22,0,0,0,1,4.28c1.39,1.36,3.41,1.36,5.39,0A11.53,11.53,0,0,0,121.59,78.29Zm-11.73-18c-2.92,2.41-7.2,3.63-7.82,3.08,0,0-.17-.42.43-1.74a5.32,5.32,0,0,1,4-2.86,9.58,9.58,0,0,1,3.62,0l.71.18A3.69,3.69,0,0,1,109.86,60.33Zm1.38,11.16c-1.53.83-2.81.94-3.29.62-.33-.23-.29-.87-.24-1.22.32-2.42,2.6-3.18,3.73-3.4l.39-.07a8.22,8.22,0,0,1,3.18.21A9.24,9.24,0,0,1,111.24,71.49Zm5.18,9.68c-.69.48-1.65.91-2.31.27a1.85,1.85,0,0,1-.32-1.88,5.34,5.34,0,0,1,3.6-3.51l.11,0a3.16,3.16,0,0,1,2.19.34A9.42,9.42,0,0,1,116.42,81.17Z"/><path class="cls-8" d="M111,49.22l-1.34,2.21a6.94,6.94,0,0,0-2.81-2.21c-1.88-.8,1.65-1.92,1.65-1.92A9.08,9.08,0,0,1,111,49.22Z"/><path class="cls-9" d="M110.15,30.92A28.81,28.81,0,1,1,76.42,8.08a28.8,28.8,0,0,1,33.73,22.84"/><path class="cls-10" d="M82.88,41.51a2.51,2.51,0,0,0,1.19-.58l4.1-3.55a5.17,5.17,0,0,1,3-1.24,70.16,70.16,0,0,1,11.1,0,.61.61,0,0,0,.62-.33,3.36,3.36,0,0,0,.38-1.28,3.73,3.73,0,0,0-.06-1.31.63.63,0,0,0-.55-.47,81.4,81.4,0,0,0-41.35,8,.63.63,0,0,0-.33.65,3.66,3.66,0,0,0,.42,1.24,3.76,3.76,0,0,0,.83,1,.62.62,0,0,0,.7.08,69.57,69.57,0,0,1,10.32-4.11,5.18,5.18,0,0,1,3.21,0l5.13,1.78a2.47,2.47,0,0,0,1.32.09"/><path class="cls-10" d="M72.28,28a1.88,1.88,0,0,0,2.64.19,1.87,1.87,0,0,0,.64-1.28,1.83,1.83,0,0,0-.45-1.36l-5.54-6.4a.7.7,0,0,0-.72-.18,3.56,3.56,0,0,0-1.24.78,3.43,3.43,0,0,0-.94,1.12.69.69,0,0,0,.07.73Z"/><path class="cls-10" d="M69.47,33.9a1.86,1.86,0,0,0,1.43-.08,1.9,1.9,0,0,0,.95-1.07,1.88,1.88,0,0,0-1.16-2.38l-8-2.77a.68.68,0,0,0-.71.2,3.5,3.5,0,0,0-.69,1.29A3.59,3.59,0,0,0,61,30.54a.68.68,0,0,0,.43.59l8,2.77"/><path class="cls-10" d="M81.34,23.62a1.86,1.86,0,0,1-1.49,2.19,1.86,1.86,0,0,1-2.19-1.48L76.06,16a.69.69,0,0,1,.31-.67,3.52,3.52,0,0,1,1.37-.5,3.75,3.75,0,0,1,1.47,0,.69.69,0,0,1,.53.52Z"/><path class="cls-10" d="M87.7,25.05a1.9,1.9,0,0,1-1,1.07,1.86,1.86,0,0,1-1.43.08,1.9,1.9,0,0,1-1.07-.95,1.86,1.86,0,0,1-.08-1.43l2.76-8a.69.69,0,0,1,.61-.43,3.53,3.53,0,0,1,1.44.25,3.75,3.75,0,0,1,1.29.69.69.69,0,0,1,.2.71Z"/><path class="cls-10" d="M92.5,29.46a1.88,1.88,0,0,1-1.36.46,1.91,1.91,0,0,1-1.28-.64,2,2,0,0,1-.45-1.36,1.87,1.87,0,0,1,.64-1.28l6.4-5.54a.67.67,0,0,1,.73-.08,3.84,3.84,0,0,1,1.13.94,3.59,3.59,0,0,1,.77,1.25.68.68,0,0,1-.18.71Z"/><path class="cls-11" d="M81.78,65.18h0M87,64.71a29.52,29.52,0,0,1-5.18.47A29.52,29.52,0,0,0,87,64.71M53.64,42.09l0,.09,0-.09m-.08-.4v0m0-.1v0m0-.1v0m0-.1h0"/><path class="cls-12" d="M60.41,17.15A28.77,28.77,0,0,0,53.5,41.39h0l0,.1v0l0,.08v0l0,.08v0l0,.1.06.27,0,.09a28.81,28.81,0,0,0,28.12,23h.06A29.52,29.52,0,0,0,87,64.71l.3-.06a28.7,28.7,0,0,0,11.44-5A55.19,55.19,0,0,1,71.7,40.09a67.34,67.34,0,0,0-8.8,3.61.59.59,0,0,1-.29.07.63.63,0,0,1-.41-.15,3.76,3.76,0,0,1-.83-1A3.66,3.66,0,0,1,61,41.34a.63.63,0,0,1,.33-.65,67,67,0,0,1,8.36-3.51c-.91-1.36-1.75-2.73-2.52-4.09l-5.65-2a.68.68,0,0,1-.43-.59,3.59,3.59,0,0,1,.26-1.45A3.5,3.5,0,0,1,62,27.8a.73.73,0,0,1,.51-.23.69.69,0,0,1,.2,0l1.92.67a79.3,79.3,0,0,1-4.21-11.12"/><path class="cls-13" d="M69.64,37.18a67,67,0,0,0-8.36,3.51.63.63,0,0,0-.33.65,3.66,3.66,0,0,0,.42,1.24,3.76,3.76,0,0,0,.83,1,.63.63,0,0,0,.41.15.59.59,0,0,0,.29-.07,67.34,67.34,0,0,1,8.8-3.61c-.72-1-1.41-1.94-2.06-2.91"/><path class="cls-13" d="M62.5,27.57a.73.73,0,0,0-.51.23,3.5,3.5,0,0,0-.69,1.29A3.59,3.59,0,0,0,61,30.54a.68.68,0,0,0,.43.59l5.65,2q-1.38-2.45-2.5-4.82L62.7,27.6a.69.69,0,0,0-.2,0"/><path class="cls-8" d="M113,60l-2.23-1a2.56,2.56,0,0,1-1.47,1.73s1.25-.35,1.68.36a1.93,1.93,0,0,1,.39,1.11S112.91,61.21,113,60Z"/><path class="cls-8" d="M115.68,65.3s-.13,1.93-.67,2.33c0,0-1.64-.28-1.76-.28s.43-1.62-.21-2.43Z"/><path class="cls-8" d="M117.23,68.61a9.72,9.72,0,0,0,.78-2.36,11,11,0,0,1,1.66,1.18c.53.51-1,2.52-1,2.52Z"/><path class="cls-8" d="M120.07,73.88l-.38,2.49L118.51,76c-.07,0-.06-1.93-.63-2.45A4.81,4.81,0,0,1,120.07,73.88Z"/><path class="cls-8" d="M121.59,78.29l.82-2.86s1.49,1.28,1.64,2.24-1.65,2.46-1.65,2.46Z"/><path class="cls-14" d="M127.85,38.27a1.43,1.43,0,0,0,.45,1,1.44,1.44,0,0,0,1,.4,1.46,1.46,0,0,0,1-.45,1.44,1.44,0,0,0,.4-1l-.17-6.58a.52.52,0,0,0-.34-.46,2.76,2.76,0,0,0-1.13-.16,3.07,3.07,0,0,0-1.12.21.55.55,0,0,0-.32.48Z"/><path class="cls-14" d="M123.25,40.42a1.46,1.46,0,0,0,2,.48,1.44,1.44,0,0,0,.48-2l-3.43-5.62a.52.52,0,0,0-.53-.22,2.62,2.62,0,0,0-1,.43,2.72,2.72,0,0,0-.87.74.54.54,0,0,0,0,.57Z"/><path class="cls-14" d="M135.46,40.11a1.44,1.44,0,0,1-.86.7,1.4,1.4,0,0,1-1.11-.12,1.46,1.46,0,0,1-.59-2l3.15-5.78a.53.53,0,0,1,.52-.26,2.88,2.88,0,0,1,1.07.38,2.76,2.76,0,0,1,.9.7.54.54,0,0,1,.07.57Z"/><path class="cls-14" d="M138.58,44.11a1.44,1.44,0,0,1-2-.48,1.43,1.43,0,0,1-.17-1.1,1.47,1.47,0,0,1,.65-.9l5.62-3.44a.54.54,0,0,1,.57,0,2.72,2.72,0,0,1,.74.87,2.67,2.67,0,0,1,.44,1,.54.54,0,0,1-.23.53Z"/><path class="cls-14" d="M139.28,49.14a1.44,1.44,0,0,1-1-.4,1.46,1.46,0,0,1-.45-1,1.44,1.44,0,0,1,.4-1,1.46,1.46,0,0,1,1-.45l6.58-.17a.55.55,0,0,1,.48.32,2.88,2.88,0,0,1,.21,1.12,2.76,2.76,0,0,1-.16,1.13.52.52,0,0,1-.46.34Z"/><path class="cls-2" d="M130.43,138.37H107.67V86.19h26.76v48.18A4,4,0,0,1,130.43,138.37Z"/></g></svg>