<svg xmlns="http://www.w3.org/2000/svg" viewBox="0 0 566.93 425.2"><defs><style>.cls-1{isolation:isolate;}.cls-2{fill:#e1ecfb;}.cls-3{fill:#9dc0f2;}.cls-4{fill:#cddff8;}.cls-10,.cls-4,.cls-9{mix-blend-mode:multiply;}.cls-5{fill:#444560;}.cls-6,.cls-9{fill:#cdcdd7;}.cls-7{fill:#dddde5;}.cls-15,.cls-8{fill:#d1435b;}.cls-10{fill:#8f90a0;}.cls-11{fill:#fff;}.cls-12,.cls-13,.cls-14{fill:none;stroke-miterlimit:10;}.cls-12{stroke:#d1435b;stroke-width:3px;}.cls-13,.cls-14{stroke:#68697f;}.cls-13{stroke-width:2px;}.cls-15{font-size:27px;font-family:BrandonGrotesque-Black, BrandonGrotesque Black;font-weight:800;}.cls-16{fill:#b2b2bf;}</style></defs><title>Cookies_Vector</title><g class="cls-1"><g id="Layer_1" data-name="Layer 1"><path class="cls-2" d="M388,343.14s-29.58-1.86-60.12-2.57c-30-.71-39.36-.33-61.19-.44s-46.33-.52-71.11,0-31.2.31-32.93,2.76c-2.28,3.21,9.25,6.76,68.5,8.27s57.21,1.8,73.68,2c15.71.17,33.2.35,48.35-.14s50.51.6,56.47-4.89C413.57,344.47,388,343.14,388,343.14Z"/><circle class="cls-2" cx="284.85" cy="202.62" r="121.69"/><circle class="cls-3" cx="286.18" cy="210.65" r="43.15"/><path class="cls-3" d="M324.21,96.36A130.41,130.41,0,0,1,222.59,308.52a131.44,131.44,0,0,1-14.25-.78A121.7,121.7,0,1,0,324.21,96.36Z"/><polygon class="cls-4" points="340.93 295.43 327.25 266.52 298.95 205.36 221.81 142.93 223.36 146.27 223.36 146.27 263.57 233.17 340.71 295.6 340.46 295.06 340.93 295.43"/><path class="cls-5" d="M284.85,346c-72.07,0-130.71-58.64-130.71-130.71s58.64-130.7,130.71-130.7a130.85,130.85,0,0,1,130.7,130.7C415.55,287.31,356.92,346,284.85,346Zm0-243.38A112.68,112.68,0,1,0,397.52,215.24,112.8,112.8,0,0,0,284.85,102.57Z"/><path class="cls-6" d="M284.85,333.33c-72.07,0-130.71-58.64-130.71-130.71s58.64-130.7,130.71-130.7a130.85,130.85,0,0,1,130.7,130.7C415.55,274.69,356.92,333.33,284.85,333.33Zm0-243.38A112.68,112.68,0,1,0,397.52,202.62,112.8,112.8,0,0,0,284.85,90Z"/><path class="cls-7" d="M284.85,333.33c-72.07,0-130.71-58.64-130.71-130.71s58.64-130.7,130.71-130.7a130.85,130.85,0,0,1,130.7,130.7C415.55,274.69,356.92,333.33,284.85,333.33Zm0-243.38A112.68,112.68,0,1,0,397.52,202.62,112.8,112.8,0,0,0,284.85,90Z"/><polygon class="cls-8" points="226.15 131.93 267.9 222.17 303.29 194.36 226.15 131.93"/><polygon class="cls-9" points="285.26 208.53 303.29 194.36 226.15 131.93 285.26 208.53"/><polygon class="cls-5" points="345.05 284.6 303.29 194.36 267.9 222.17 345.05 284.6"/><polygon class="cls-10" points="285.15 208.6 303.18 194.43 345.05 284.58 285.15 208.6"/><circle class="cls-11" cx="286.43" cy="210.23" r="17"/><path class="cls-5" d="M291.11,202.31a9.19,9.19,0,0,1-12.43,12.87,9.2,9.2,0,1,0,12.43-12.87Z"/><line class="cls-12" x1="286.35" y1="102.51" x2="286.35" y2="122.51"/><line class="cls-13" x1="286.35" y1="297.51" x2="286.35" y2="315.76"/><line class="cls-13" x1="172.51" y1="211.01" x2="191.18" y2="211.01"/><line class="cls-13" x1="377.6" y1="211.01" x2="397.6" y2="211.01"/><line class="cls-14" x1="208.98" y1="131.8" x2="223.6" y2="146.01"/><line class="cls-14" x1="348.85" y1="271.51" x2="362.3" y2="285.13"/><line class="cls-14" x1="210.48" y1="287.81" x2="224.1" y2="273.76"/><line class="cls-14" x1="349.1" y1="147.76" x2="363.06" y2="133.98"/><text class="cls-15" transform="translate(277.46 145.76)">N</text><path class="cls-16" d="M368.92,127.69A112.61,112.61,0,0,1,210.79,287.47L198.1,300.3a130.16,130.16,0,0,0,86.75,33c72.07,0,130.7-58.64,130.7-130.71a130.22,130.22,0,0,0-33.93-87.76Z"/><path class="cls-11" d="M210.14,287.15a111.87,111.87,0,0,1-32-126.53A113.58,113.58,0,0,1,288.3,88.86,112.74,112.74,0,0,1,333.12,100a114.74,114.74,0,0,1,19.65,12.17,100.27,100.27,0,0,1,16.58,16,111.78,111.78,0,0,0-37-26.44,114,114,0,0,0-88.42-1.79,112.28,112.28,0,0,0-49,170.15c1.16,1.51,2.3,3.05,3.49,4.55l3.71,4.37,3.91,4.2Z"/></g></g></svg>