<svg xmlns="http://www.w3.org/2000/svg" viewBox="0 0 566.93 425.2"><defs><style>.cls-1{isolation:isolate;}.cls-2{fill:#e1ecfb;}.cls-3{fill:none;stroke:#b2b2bf;stroke-miterlimit:10;stroke-width:19.27px;}.cls-4{fill:#dddde5;}.cls-5{fill:#444560;}.cls-6{fill:#ffe1b8;}.cls-7{fill:#ffa830;}.cls-8{fill:#b2b2bf;}.cls-10,.cls-14,.cls-8{mix-blend-mode:multiply;}.cls-9{fill:#ffb54d;}.cls-10{fill:#f7fafe;}.cls-11{fill:#ffcf8b;}.cls-12{fill:#ff9400;opacity:0.5;}.cls-13{fill:#fff;}.cls-14{fill:#e4e4ea;}</style></defs><title>Cookies_Vector</title><g class="cls-1"><g id="Layer_1" data-name="Layer 1"><path class="cls-2" d="M389.17,347.31S359.58,345,329,344.55c-30-.47-39.42.31-61.29.59s-46.41.14-71.23,1.4-31.27,1.11-33.06,4.95c-2.34,5,9.13,10.28,68.46,11.41s57.28,1.62,73.78,1.55c15.74-.06,33.25-.13,48.43-1.2s50.6-.11,56.68-8.75C414.75,348.84,389.17,347.31,389.17,347.31Z"/><path class="cls-3" d="M356.82,205.5V130.22a72.93,72.93,0,0,0-145.86,0v76.05"/><path class="cls-4" d="M283.88,47.65a82.66,82.66,0,0,0-82.57,82.57v5.33c.34-.11.68-.2,1-.29,6.9-46.59,48.23-82.5,98-82.5a103.26,103.26,0,0,1,14.81,1.07A82.17,82.17,0,0,0,283.88,47.65Z"/><polygon class="cls-5" points="220.56 182.47 201.32 184.15 220.56 164.74 220.56 182.47"/><polygon class="cls-5" points="366.38 182.47 347.14 184.15 366.38 164.74 366.38 182.47"/><rect class="cls-6" x="185.55" y="181.31" width="167.48" height="174.56" rx="9.63"/><rect class="cls-7" x="214.24" y="181.31" width="167.48" height="174.56" rx="9.63"/><rect class="cls-8" x="214.24" y="181.31" width="167.48" height="174.56" rx="9.63"/><rect class="cls-9" x="200.17" y="181.31" width="167.48" height="174.56" rx="9.63"/><rect class="cls-10" x="200.17" y="181.31" width="167.48" height="174.56" rx="9.63"/><path class="cls-11" d="M209.79,355.88a9.65,9.65,0,0,1-9.62-9.63V190.94a9.66,9.66,0,0,1,9.62-9.63H358a9.66,9.66,0,0,1,9.62,9.63"/><circle class="cls-12" cx="284.91" cy="273.26" r="52.32"/><circle class="cls-13" cx="284.91" cy="273.26" r="35.63"/><circle class="cls-5" cx="285.55" cy="262.14" r="10.8"/><rect class="cls-5" x="279.76" y="266" width="11.57" height="29.32"/><path class="cls-14" d="M311.43,249.46A35.63,35.63,0,0,1,262,300.52"/></g></g></svg>