<svg width="29" height="19" viewBox="0 0 29 19" fill="none" xmlns="http://www.w3.org/2000/svg">
<path d="M10.2454 18.04C10.0057 18.0393 9.76875 17.9964 9.54923 17.914C9.32971 17.8315 9.13232 17.7113 8.96933 17.5607L0.473829 9.81675C0.156256 9.52676 -0.0138668 9.14054 0.000885237 8.74306C0.0156372 8.34558 0.214056 7.9694 0.552492 7.69728C0.890927 7.42516 1.34166 7.27939 1.80553 7.29203C2.26939 7.30467 2.7084 7.47469 3.02598 7.76469L10.2279 14.3403L24.929 0.559983C25.0782 0.400794 25.2638 0.26942 25.4744 0.17393C25.685 0.0784397 25.9161 0.0208491 26.1537 0.00469569C26.3912 -0.0114578 26.63 0.0141671 26.8556 0.0799961C27.0811 0.145825 27.2886 0.250468 27.4652 0.387498C27.6418 0.524529 27.7839 0.691054 27.8827 0.876844C27.9815 1.06264 28.0349 1.26377 28.0397 1.46789C28.0444 1.67202 28.0004 1.87482 27.9104 2.06385C27.8204 2.25288 27.6862 2.42414 27.5161 2.56712L11.539 17.5457C11.3775 17.699 11.1808 17.8221 10.9612 17.9071C10.7416 17.9922 10.5039 18.0374 10.2629 18.04H10.2454Z" fill="#FAFAFA"/>
</svg>
