<svg xmlns="http://www.w3.org/2000/svg" width="638.402" height="86.979" viewBox="0 0 638.402 86.979">
  <g id="Group_20425" data-name="Group 20425" transform="translate(6889.3 -3479.511)">
    <path id="Subtraction_122" data-name="Subtraction 122" d="M500.186,85.887A48.031,48.031,0,0,1,483.219,83.1a32.435,32.435,0,0,1-12.511-8.355,34.059,34.059,0,0,1-5.477-8.019,43.374,43.374,0,0,1-3.419-9.962h18.962a23.384,23.384,0,0,0,3.53,7.184c3.525,4.7,8.868,7.084,15.881,7.084,10.01,0,16.548-4.8,19.434-14.268h18.95a43.264,43.264,0,0,1-3.42,9.955,34.157,34.157,0,0,1-5.486,8.026A32.433,32.433,0,0,1,517.153,83.1,48.034,48.034,0,0,1,500.186,85.887Zm-287.392,0a43.612,43.612,0,0,1-16.082-2.764,30.33,30.33,0,0,1-11.8-8.291,33.98,33.98,0,0,1-5.186-8.05,44.967,44.967,0,0,1-3.213-10.017h18.641c2.82,9.543,9.311,14.382,19.293,14.382,5.838,0,13.007-1.48,21.309-4.4V81.6a54.167,54.167,0,0,1-10.883,3.214A66.1,66.1,0,0,1,212.793,85.887Zm55.152-1.141H248.864L258.7,56.766h61.016l9.872,27.978h-19.08l-6.056-19.881H274l-6.056,19.881Zm-166.976,0H81.888l9.835-27.979h61.016l9.872,27.978H143.53l-6.055-19.881h-30.45l-6.056,19.881Zm536.236,0H614.7L598.606,56.766h19.049l4.067,7.013h.4c-.135-2.568-.253-4.928-.35-7.013H637.2V84.744Zm-58.271,0H563.108V56.766h15.825V84.744Zm-141.669,0H419.555V56.766h17.709V84.744Zm-59.094,0H360.46V56.766h17.71V84.744Zm-330.525,0H28.336L18.843,56.766H35.209c.363,1.4.731,2.887,1.1,4.414.928,3.881,1.514,6.62,1.742,8.141a106.713,106.713,0,0,1,2.707-12.554h16.4Zm530.764-53.85h-15.3V1.222h22.337l17.205,29.67-18.922,0-5.367-9.333h-.515c.222,3.425.411,6.565.562,9.333Zm-98.15,0H461.394a44.965,44.965,0,0,1,3.432-11.178,33.672,33.672,0,0,1,5.91-8.81,32.565,32.565,0,0,1,12.547-8.248A48.869,48.869,0,0,1,500.3-.092a48.291,48.291,0,0,1,16.989,2.771,32.093,32.093,0,0,1,12.462,8.312,34.119,34.119,0,0,1,5.819,8.8,45.421,45.421,0,0,1,3.395,11.1H520.154c-2.56-10.78-9.24-16.246-19.854-16.246-7.013,0-12.376,2.393-15.939,7.113a24.864,24.864,0,0,0-4.1,9.133Zm-195.952,0H267.793L278.343.879H300l10.59,30.013H294.291c-1.946-6.283-3.131-10.135-3.522-11.447-.7-2.345-1.209-4.229-1.514-5.6-.769,2.986-2.435,8.721-4.948,17.046Zm-166.977,0H100.817L111.367.879h21.652l10.59,30.013H127.314c-1.979-6.39-3.13-10.134-3.522-11.447-.7-2.355-1.212-4.239-1.514-5.6-.77,2.986-2.436,8.721-4.948,17.046Zm519.875,0H621.266V1.222H637.2v29.67Zm-199.94,0H419.555V1.222h17.709v29.67Zm-59.094,0H360.46V15.962H337.78V1.222h63.07V15.962H378.17V30.892Zm-183.216,0H176.442A45.685,45.685,0,0,1,180,20.274a36.545,36.545,0,0,1,5.777-8.655,33.522,33.522,0,0,1,7.848-6.37,36.539,36.539,0,0,1,9.648-3.92A46.009,46.009,0,0,1,214.45.023a52.217,52.217,0,0,1,12.2,1.471A62.136,62.136,0,0,1,238.9,5.907l-5.713,14.4a95.069,95.069,0,0,0-9.426-3.884,28.24,28.24,0,0,0-9.312-1.657c-6.634,0-11.843,2.527-15.482,7.512a26.333,26.333,0,0,0-4.014,8.618Zm-129,0H48.71L58.157,1.222H76.038Zm-38.692,0H10.066L0,1.222H17.881l9.378,29.67Z" transform="translate(-6888.603 3480.103)" fill="#fff" stroke="rgba(0,0,0,0)" stroke-miterlimit="10" stroke-width="1"/>
    <text id="It_s_Time_To_Turn_Your_Dream_Vacation_Into_A_Reality" data-name="It’s Time To Turn Your Dream Vacation Into A Reality" transform="translate(-6871.775 3530.144)" fill="#fff" font-size="23" font-family="Bahnschrift" font-weight="700" letter-spacing="0.07em"><tspan x="0" y="0">It’s Time To Turn Your Dream Vacation Into A Reality</tspan></text>
  </g>
</svg>
