<svg width="2000" height="2000" viewBox="0 0 2000 2000" fill="none" xmlns="http://www.w3.org/2000/svg">
<path d="M538.04 774.56V804.56H568.04V774.56V744.6H538.04V774.56Z" fill="#EBEBEB"/>
<path d="M568.04 594.68H538.04V624.68H568.04V594.68Z" fill="#EBEBEB"/>
<path d="M753.319 924.8H723.319V954.8H753.319V924.8Z" fill="#EBEBEB"/>
<path d="M568.04 654.64V684.6H538.04V714.6H568.04V744.6H598.04H628V774.56H658V744.6H687.96V714.6V684.6H658V714.6H628H598.04V684.6V654.64V624.64H568.04V654.64Z" fill="#EBEBEB"/>
<path d="M628 594.68H598.04V624.64H628H658V594.68H628Z" fill="#EBEBEB"/>
<path d="M762.92 835.72H779.04V805.72H762.92H746.84V835.72H762.92Z" fill="#EBEBEB"/>
<path d="M688 624.64H658V654.64H688V624.64Z" fill="#EBEBEB"/>
<path d="M897.879 744.6H867.879V774.6H897.879V744.6Z" fill="#EBEBEB"/>
<path d="M927.879 414.76H897.879V444.76H927.879V414.76Z" fill="#EBEBEB"/>
<path d="M747.961 654.64V624.64H777.921V594.68H747.961V564.68H717.961V594.68H687.961V624.64H717.961V654.64V684.599V714.599V744.599H747.961V714.599V684.599H777.921V654.64H747.961Z" fill="#EBEBEB"/>
<path d="M897.879 954.481H927.839V924.481H897.879H867.879V954.481H897.879Z" fill="#EBEBEB"/>
<path d="M867.88 414.76H837.88V444.76H867.88V414.76Z" fill="#EBEBEB"/>
<path d="M860.399 654.64V624.64H830.399V594.68H800.399V624.64V654.64H770.439V684.6H800.399H830.399V654.64H860.399Z" fill="#EBEBEB"/>
<path d="M1029.64 594.68H999.641V624.68H1029.64V594.68Z" fill="#EBEBEB"/>
<path d="M718.839 744.6H688.839V774.6H718.839V744.6Z" fill="#EBEBEB"/>
<path d="M837.879 564.68V534.68H867.879V504.72H897.879H927.839V474.72H897.879V444.76H867.879V474.72H837.879V504.72H807.919V534.68H777.919V564.68H807.919H837.879Z" fill="#EBEBEB"/>
<path d="M837.879 774.56V744.6H867.879V714.6H837.879H807.919V744.6H777.919V774.56H807.919H837.879Z" fill="#EBEBEB"/>
<path d="M927.841 894.481V864.521H897.881H867.881V834.521H837.881V864.521H807.921V894.481H777.921H747.961V924.481H777.921H807.921H837.881V894.481H867.881V924.481H897.881V894.481H927.841Z" fill="#EBEBEB"/>
<path d="M807.921 444.76V414.76H777.921H747.961V444.76H717.961V474.72H747.961H777.921V444.76H807.921Z" fill="#EBEBEB"/>
<path d="M807.919 474.72H777.919V504.72H807.919V474.72Z" fill="#EBEBEB"/>
<path d="M882.881 594.68H852.881V624.64V654.64V684.6H882.881H912.881V654.64H882.881V624.64H912.881V594.68H942.841V564.68H912.881V534.68H882.881V564.68V594.68Z" fill="#EBEBEB"/>
<path d="M777.961 504.72H747.961V534.72H777.961V504.72Z" fill="#EBEBEB"/>
<path d="M867.879 804.56V834.52H897.879H927.839V804.56H957.839H987.839V774.56H957.839H927.839H897.879V804.56H867.879Z" fill="#EBEBEB"/>
<path d="M1029.64 684.6H999.641V714.6H1029.64V684.6Z" fill="#EBEBEB"/>
<path d="M927.879 714.6H897.879V744.6H927.879V714.6Z" fill="#EBEBEB"/>
<path d="M1002.8 624.64H972.839H942.839V654.64H972.839V684.6H1002.8V654.64V624.64Z" fill="#EBEBEB"/>
<path d="M987.84 714.6H957.84V744.6H987.84V714.6Z" fill="#EBEBEB"/>
<path d="M658 895.081H748V774.521H627.44V804.561H598.04V834.521H627.44V864.521H598.04V894.521H627.44V895.081H628V924.481H598.04V984.481H628V954.481H658V895.081ZM724.88 797.641V872.601H649.92V797.641H724.88Z" fill="#EBEBEB"/>
<path d="M1047.8 774.56H1077.76V744.6H1047.8H1017.8H987.84V774.56H1017.8H1047.8Z" fill="#EBEBEB"/>
<path d="M1047.8 654.64H1077.76V624.64V594.68H1047.8V624.64V654.64Z" fill="#EBEBEB"/>
<path d="M809.04 805.72H779.04V835.72V865.68H809.04V835.72V805.72Z" fill="#EBEBEB"/>
<path d="M1107.76 774.56H1077.76V804.56H1107.76V774.56Z" fill="#EBEBEB"/>
<path d="M1107.76 714.6V684.6H1077.76V714.6V744.6H1107.76V714.6Z" fill="#EBEBEB"/>
<path d="M568.04 924.481H538.04V954.481V984.481H568.04V954.481V924.481Z" fill="#EBEBEB"/>
<path d="M1107.76 564.68V414.76H957.84V564.68H1107.76ZM980.32 542.2V437.24H1085.28V542.2H980.32Z" fill="#EBEBEB"/>
<path d="M1062.76 459.721H1002.8V519.681H1062.76V459.721Z" fill="#EBEBEB"/>
<path d="M1107.76 834.521H957.84V984.481H1107.76V834.521ZM980.32 961.961V857.041H1085.28V961.961H980.32Z" fill="#EBEBEB"/>
<path d="M1062.76 879.52H1002.8V939.479H1062.76V879.52Z" fill="#EBEBEB"/>
<path d="M537.679 414.76V564.68H687.599V414.76H537.679ZM665.119 437.24V542.2H559.999V437.24H665.119Z" fill="#EBEBEB"/>
<path d="M642.6 459.721H582.64V519.681H642.6V459.721Z" fill="#EBEBEB"/>
<path d="M297.99 1005.4C299.923 997.796 295.329 990.068 287.729 988.135C280.128 986.202 272.4 990.796 270.466 998.396C268.533 1006 273.128 1013.73 280.728 1015.66C288.329 1017.59 296.057 1013 297.99 1005.4Z" fill="#EBEBEB"/>
<path d="M256 983.761C259.623 979.864 263.999 976.743 268.863 974.586C273.726 972.428 278.977 971.279 284.297 971.208C289.618 971.137 294.897 972.146 299.817 974.172C304.736 976.199 309.194 979.203 312.92 983.001C320.16 990.321 331.48 979.001 324.24 971.761C319.028 966.496 312.815 962.328 305.966 959.504C299.118 956.679 291.773 955.254 284.365 955.314C276.957 955.373 269.636 956.916 262.834 959.851C256.032 962.785 249.886 967.053 244.76 972.401C237.68 979.841 248.76 991.201 256 983.761Z" fill="#EBEBEB"/>
<path d="M207.68 917.68C229.24 899.04 255 887.28 283.68 887.2C312.431 886.86 340.229 897.504 361.4 916.96C368.88 924 380.24 912.76 372.76 905.72C348.616 883.387 316.888 871.062 284 871.24C250.8 871.24 221.28 884.88 196.48 906.36C188.48 913.08 199.96 924.36 207.72 917.68H207.68Z" fill="#EBEBEB"/>
<path d="M226.68 954.279C233.881 946.256 242.664 939.811 252.477 935.348C262.291 930.885 272.922 928.502 283.701 928.348C294.48 928.193 305.175 930.272 315.112 934.453C325.049 938.633 334.013 944.825 341.44 952.639C348.64 960.039 359.96 948.639 352.8 941.439C343.899 932.131 333.181 924.749 321.31 919.753C309.439 914.757 296.669 912.253 283.79 912.395C270.911 912.538 258.199 915.324 246.442 920.582C234.685 925.839 224.133 933.456 215.44 942.959C208.48 950.479 219.68 961.839 226.68 954.279Z" fill="#EBEBEB"/>
<path d="M912.401 225.721C914.801 208.2 890.041 193.72 871.441 192.24C862.561 191.52 853.361 192.88 844.961 189.96C826.721 183.6 819.441 160.08 801.681 152.6C788.401 147 773.081 151.96 760.201 158.44C747.321 164.92 734.601 173.08 720.201 174C707.681 174.8 694.081 170 683.121 176.28C675.121 180.84 670.681 190.24 663.121 195.8C655.561 201.36 646.16 202.4 637.04 202.88C627.92 203.36 618.44 203.48 610.16 207.28C601.88 211.08 594.96 219.88 596.68 228.841L912.401 225.721Z" fill="#EBEBEB"/>
<path d="M434.56 522.201C436.72 506.481 414.56 493.521 397.84 492.201C389.84 491.561 381.84 492.761 374.08 490.121C357.76 484.441 351.24 463.361 335.32 456.641C323.32 451.601 309.68 456.081 298.16 461.881C286.64 467.681 275.2 475.001 262.16 475.841C250.92 476.561 238.76 472.401 228.92 477.881C221.6 481.881 217.8 490.401 211.04 495.361C204.28 500.321 195.84 501.241 187.64 501.721C179.462 501.561 171.324 502.917 163.64 505.721C156.2 509.121 150.04 517.041 151.64 525.081L434.56 522.201Z" fill="#F5F5F5"/>
<path d="M1933.52 511.081C1935.84 494.241 1912.08 480.361 1894.2 479.081C1885.68 478.401 1876.84 479.721 1868.76 476.881C1851.28 470.801 1844.28 448.201 1827.24 440.881C1814.48 435.521 1799.8 440.281 1787.44 446.521C1775.08 452.761 1762.84 460.561 1749.04 461.481C1737.04 462.241 1723.96 457.761 1713.44 463.641C1705.44 468.001 1701.44 477.041 1694.28 482.361C1687.12 487.681 1678 488.681 1669.24 489.161C1660.48 489.641 1651.4 489.721 1643.44 493.401C1635.48 497.081 1628.84 505.401 1630.52 514.081L1933.52 511.081Z" fill="#F5F5F5"/>
<path d="M1897.84 1908.24C1897.84 1908.8 1495.84 1909.28 1000.04 1909.28C504.24 1909.28 102.16 1908.8 102.16 1908.24C102.16 1907.68 504 1907.2 999.999 1907.2C1496 1907.2 1897.84 1907.64 1897.84 1908.24Z" fill="#263238"/>
<path d="M1682.8 1732.28C1686.74 1734.17 1690.27 1736.83 1693.16 1740.11C1696.05 1743.39 1698.26 1747.21 1699.64 1751.36C1702.36 1759.7 1703.13 1768.56 1701.88 1777.24C1700 1794.04 1690.44 1811 1680.16 1824.4C1666.04 1812.08 1662.76 1790.52 1661.8 1779.52C1660.28 1762.08 1668.12 1729.68 1682.8 1732.28Z" fill="#FF725E"/>
<path d="M1696.6 1852C1695.65 1847.2 1695.99 1842.24 1697.56 1837.61C1699.13 1832.97 1701.89 1828.84 1705.56 1825.6C1709.3 1822.46 1713.64 1820.09 1718.31 1818.63C1722.98 1817.18 1727.89 1816.66 1732.76 1817.12C1735.03 1817.08 1737.28 1817.53 1739.36 1818.46C1741.43 1819.39 1743.27 1820.76 1744.76 1822.48C1745.81 1824.3 1746.36 1826.37 1746.36 1828.48C1746.36 1830.59 1745.81 1832.66 1744.76 1834.48C1742.61 1838.14 1739.53 1841.16 1735.84 1843.24C1723.6 1850.92 1710.32 1856.12 1696.48 1851.96" fill="#FF725E"/>
<path d="M1678.48 1903.6C1678.55 1902.44 1678.71 1901.29 1678.96 1900.16C1679.44 1897.72 1680 1894.6 1680.68 1890.84C1682.25 1880.45 1685.51 1870.39 1690.32 1861.04C1695.3 1851.71 1702.67 1843.87 1711.68 1838.32C1714.42 1836.65 1717.34 1835.3 1720.4 1834.32C1721.22 1834.06 1722.07 1833.84 1722.92 1833.68C1723.21 1833.63 1723.51 1833.63 1723.8 1833.68C1719.73 1835.07 1715.82 1836.87 1712.12 1839.04C1703.4 1844.68 1696.25 1852.44 1691.36 1861.6C1686.66 1870.85 1683.34 1880.75 1681.52 1890.96C1680.68 1894.96 1680 1898.04 1679.44 1900.2C1679.24 1901.37 1678.92 1902.51 1678.48 1903.6Z" fill="#263238"/>
<path d="M1679 1757.48C1679.07 1757.99 1679.07 1758.5 1679 1759C1679 1760.12 1679 1761.52 1679.28 1763.32C1679.48 1767.08 1679.68 1772.52 1679.92 1779.32C1680.36 1792.76 1680.68 1811.32 1680.6 1831.92C1680.52 1852.52 1680 1871.08 1679.44 1884.52C1679.2 1891.24 1678.92 1896.52 1678.68 1900.52C1678.68 1902.28 1678.68 1903.72 1678.4 1904.84C1678.39 1905.35 1678.33 1905.86 1678.2 1906.36C1678.14 1905.86 1678.14 1905.35 1678.2 1904.84C1678.2 1903.72 1678.2 1902.28 1678.2 1900.48C1678.2 1896.48 1678.44 1891.16 1678.6 1884.48C1678.92 1871.04 1679.28 1852.48 1679.36 1831.92C1679.44 1811.36 1679.36 1792.8 1679.04 1779.36C1679.04 1772.72 1678.84 1767.36 1678.8 1763.36C1678.8 1761.6 1678.8 1760.16 1678.8 1759.04C1678.8 1758.51 1678.87 1757.99 1679 1757.48Z" fill="#263238"/>
<path d="M1672 1862.36C1670.29 1852.18 1666.18 1842.55 1660.01 1834.28C1653.84 1826 1645.79 1819.31 1636.52 1814.76C1631.8 1812.52 1625.64 1811.04 1621.72 1814.56C1617.8 1818.08 1618.72 1824.36 1620.64 1829.28C1624.82 1839.47 1631.93 1848.19 1641.08 1854.32C1650.22 1860.45 1660.99 1863.73 1672 1863.72" fill="#FF725E"/>
<path d="M1638.96 1830.68C1640 1831.02 1641.01 1831.46 1641.96 1832C1643.13 1832.53 1644.27 1833.13 1645.36 1833.8C1646.85 1834.63 1648.29 1835.54 1649.68 1836.52C1651.39 1837.66 1653.04 1838.9 1654.6 1840.24C1656.45 1841.73 1658.21 1843.31 1659.88 1845C1663.68 1848.88 1667.02 1853.19 1669.84 1857.84C1672.62 1862.53 1674.83 1867.52 1676.44 1872.72C1677.67 1876.98 1678.51 1881.35 1678.96 1885.76C1679.2 1887.64 1678.96 1889.36 1679.2 1890.84C1679.27 1892.17 1679.27 1893.51 1679.2 1894.84C1679.18 1895.93 1679.06 1897.01 1678.84 1898.08C1678.56 1898.08 1679.04 1893.44 1678.2 1886.08C1677.96 1884.24 1677.72 1882.08 1677.24 1880.04C1676.76 1878 1676.16 1875.64 1675.48 1873.28C1673.85 1868.2 1671.65 1863.31 1668.92 1858.72C1666.15 1854.16 1662.89 1849.9 1659.2 1846.04C1657.58 1844.36 1655.87 1842.75 1654.08 1841.24C1652.55 1839.9 1650.95 1838.64 1649.28 1837.48C1643.12 1832.88 1638.84 1830.92 1638.96 1830.68Z" fill="#263238"/>
<path d="M608.239 1908.28C607.061 1904.55 606.138 1900.74 605.479 1896.88C601.34 1878.62 595.154 1860.88 587.039 1844C585.182 1840.55 583.526 1837 582.079 1833.36C584.543 1836.42 586.637 1839.77 588.319 1843.32C597.277 1860.05 603.553 1878.08 606.919 1896.76C607.77 1900.54 608.213 1904.4 608.239 1908.28Z" fill="#263238"/>
<path d="M643.719 1735.16C643.545 1737.45 643.211 1739.72 642.719 1741.96C641.919 1746.28 640.839 1752.56 639.599 1760.32C637.039 1775.88 634.079 1797.4 632.239 1821.32C630.399 1845.24 630.079 1867.04 630.199 1882.76C630.199 1890.76 630.199 1897 630.519 1901.4C630.692 1903.68 630.692 1905.96 630.519 1908.24C630.079 1906 629.825 1903.72 629.759 1901.44C629.399 1897.04 629.039 1890.68 628.799 1882.8C628.149 1862.24 628.616 1841.67 630.199 1821.16C631.776 1800.67 634.447 1780.28 638.199 1760.08C639.679 1752.32 640.959 1746.08 641.999 1741.8C642.404 1739.55 642.979 1737.33 643.719 1735.16Z" fill="#263238"/>
<path d="M700.679 1834.8C698.621 1838.15 696.391 1841.4 693.999 1844.52C688.729 1852.33 684.151 1860.59 680.319 1869.2C676.566 1877.85 673.607 1886.82 671.479 1896C670.786 1899.87 669.892 1903.7 668.799 1907.48C668.731 1903.51 669.148 1899.55 670.039 1895.68C673.545 1876.83 681.332 1859.04 692.799 1843.68C695.03 1840.39 697.679 1837.41 700.679 1834.8Z" fill="#263238"/>
<path d="M1398.04 1848C1400.1 1850.45 1401.87 1853.14 1403.32 1856C1406.28 1861.08 1410.12 1868.28 1413.92 1876.4C1417.72 1884.52 1420.76 1892.16 1422.76 1897.68C1424.04 1900.61 1424.96 1903.69 1425.48 1906.84C1423.87 1904.11 1422.53 1901.23 1421.48 1898.24C1419.16 1892.84 1415.92 1885.4 1412.12 1877.28C1408.32 1869.16 1404.72 1861.92 1402.08 1856.68C1400.42 1853.94 1399.07 1851.03 1398.04 1848Z" fill="#263238"/>
<path d="M1471.64 1774.96C1471.46 1776.72 1471.12 1778.47 1470.6 1780.16C1469.76 1783.88 1468.68 1788.56 1467.36 1794.16C1464.72 1806.16 1461.48 1822.4 1459.04 1840.72C1456.6 1859.04 1455.48 1875.8 1455.04 1887.88C1454.84 1893.64 1454.68 1898.44 1454.56 1902.24C1454.62 1904.01 1454.49 1905.78 1454.16 1907.52C1453.86 1905.78 1453.71 1904.01 1453.72 1902.24C1453.72 1898.84 1453.52 1893.92 1453.72 1887.84C1453.96 1872 1455.13 1856.19 1457.2 1840.48C1459.27 1824.76 1462.26 1809.17 1466.16 1793.8C1467.68 1787.92 1469.04 1783.2 1470.16 1779.96C1470.46 1778.24 1470.96 1776.57 1471.64 1774.96Z" fill="#263238"/>
<path d="M939.2 1807.52C940.535 1808.28 941.76 1809.23 942.84 1810.32C945.994 1813.04 948.998 1815.92 951.84 1818.96C970.778 1839.09 984.162 1863.79 990.68 1890.64C991.701 1894.68 992.475 1898.78 993 1902.92C993.304 1904.42 993.438 1905.95 993.4 1907.48C993.04 1907.48 992.04 1901.08 989.4 1891.04C982.111 1864.72 968.894 1840.42 950.76 1820C944 1812 938.96 1808 939.2 1807.52Z" fill="#263238"/>
<path d="M1008.52 1764.96C1008.69 1766.85 1008.69 1768.75 1008.52 1770.64C1008.52 1774.64 1008.52 1779.88 1008.52 1786.08C1008.52 1799.12 1009.04 1817.12 1010.76 1836.96C1012.48 1856.8 1015.12 1874.6 1017.36 1887.44C1018.44 1893.56 1019.36 1898.68 1020.08 1902.64C1020.53 1904.49 1020.8 1906.38 1020.88 1908.28C1020.2 1906.5 1019.67 1904.67 1019.28 1902.8C1018.36 1899.28 1017.2 1894.12 1015.92 1887.72C1009.24 1854.27 1006.26 1820.18 1007.04 1786.08C1007.04 1779.52 1007.44 1774.08 1007.76 1770.6C1007.82 1768.7 1008.08 1766.81 1008.52 1764.96Z" fill="#263238"/>
<path d="M1069.72 1849.76C1070.32 1850.08 1063.44 1862.08 1058.72 1878.32C1054 1894.56 1053.12 1908.32 1052.48 1908.28C1052.03 1905.27 1052.03 1902.21 1052.48 1899.2C1053.11 1891.93 1054.45 1884.73 1056.48 1877.72C1058.5 1870.72 1061.18 1863.93 1064.48 1857.44C1065.86 1854.65 1067.63 1852.07 1069.72 1849.76Z" fill="#263238"/>
<path d="M251.68 1527.68H205.24V1896.36H251.68V1527.68Z" fill="#455A64"/>
<path d="M251.72 1896.32C251.72 1896.32 251.72 1895.68 251.72 1894.4V1888.88C251.72 1883.96 251.72 1876.88 251.72 1867.68C251.72 1849.24 251.72 1822.6 251.4 1789.52C251.4 1723.32 251.12 1631.32 250.96 1527.68L252 1528.72H205.24L206.28 1527.68C206.04 1689.16 205.84 1829 205.72 1896.32L205.24 1895.88L239.68 1896.12H248.64H251.72C251.72 1896.12 250.76 1896.12 248.8 1896.12H239.96L205.24 1896.36H204.8V1895.88C204.8 1828.56 204.48 1688.72 204.2 1527.24L205.24 1526.2H252.76V1527.24C252.76 1631.24 252.4 1723.44 252.32 1789.84C252.32 1822.8 252.08 1849.36 252 1867.76C252 1876.8 252 1883.76 252 1888.72V1894.12C251.76 1895.76 251.72 1896.32 251.72 1896.32Z" fill="#263238"/>
<g opacity="0.3">
<path d="M251.68 1536.64H205.24V1552H251.68V1536.64Z" fill="black"/>
</g>
<path d="M1239.72 1527.68H1193.28V1896.36H1239.72V1527.68Z" fill="#455A64"/>
<path d="M1239.72 1896.32C1239.72 1896.32 1239.72 1895.68 1239.72 1894.4V1888.88C1239.72 1883.96 1239.72 1876.88 1239.72 1867.68C1239.72 1849.24 1239.72 1822.6 1239.4 1789.52C1239.4 1723.32 1239.16 1631.32 1238.96 1527.68L1240 1528.72H1193.28L1194.32 1527.68C1194.04 1689.16 1193.84 1829 1193.72 1896.32L1193.28 1895.88L1227.72 1896.12H1236.64H1239.72C1239.72 1896.12 1238.76 1896.12 1236.8 1896.12H1228L1193.28 1896.36H1192.8V1895.88C1192.8 1828.56 1192.48 1688.72 1192.24 1527.24L1193.28 1526.2H1240.76V1527.24C1240.76 1631.24 1240.44 1723.44 1240.32 1789.84C1240.32 1822.8 1240.08 1849.36 1240 1867.76C1240 1876.8 1240 1883.76 1240 1888.72V1894.12C1239.76 1895.76 1239.72 1896.32 1239.72 1896.32Z" fill="#263238"/>
<path d="M1166.92 1204.72H1120.48V1512.04H1166.92V1204.72Z" fill="#455A64"/>
<path d="M1166.96 1512C1166.9 1511.45 1166.9 1510.91 1166.96 1510.36V1505.76C1166.96 1501.76 1166.96 1495.72 1166.96 1488.16C1166.96 1472.76 1166.76 1450.64 1166.64 1423.08C1166.64 1367.96 1166.36 1291.32 1166.2 1204.68L1167.24 1205.72H1120.52C1122.56 1203.64 1121.08 1205.2 1121.52 1204.76V1253.52C1121.52 1269.52 1121.52 1285.08 1121.52 1300.28C1121.52 1330.68 1121.52 1359.4 1121.52 1385.84C1121.32 1438.64 1121.2 1482.28 1121.12 1512L1120.6 1511.48L1154.96 1511.76H1163.96H1167.08H1164.12H1155.28L1120.6 1512.04H1120V1512C1120 1482.28 1119.8 1438.64 1119.64 1385.84C1119.64 1359.4 1119.64 1330.68 1119.64 1300.28C1119.64 1285.08 1119.64 1269.49 1119.64 1253.52V1204.8C1120.12 1204.32 1118.6 1205.76 1120.72 1203.68H1168V1204.72C1168 1291.64 1167.68 1368.72 1167.56 1423.88C1167.56 1451.32 1167.32 1473.36 1167.28 1488.68C1167.28 1496.16 1167.28 1502 1167.28 1506.08C1167.28 1507.96 1167.28 1509.48 1167.28 1510.56C1167.28 1511.64 1166.96 1512 1166.96 1512Z" fill="#263238"/>
<path d="M340.6 1204.72H294.16V1512.04H340.6V1204.72Z" fill="#455A64"/>
<path d="M340.64 1512C340.607 1511.45 340.607 1510.91 340.64 1510.36C340.64 1509.24 340.64 1507.72 340.64 1505.76C340.64 1501.76 340.64 1495.72 340.64 1488.16C340.64 1472.76 340.64 1450.64 340.32 1423.08C340.32 1367.96 340.04 1291.32 339.88 1204.68L340.92 1205.72H294.2C296.24 1203.64 294.76 1205.2 295.2 1204.76V1253.52C295.2 1269.52 295.2 1285.11 295.2 1300.28C295.2 1330.68 295.2 1359.4 295.2 1385.84C295.2 1438.64 294.88 1482.28 294.8 1512L294.28 1511.48L328.64 1511.76H337.64H340.76H337.8H328.96L294.28 1512.04H293.8V1512C293.8 1482.28 293.56 1438.64 293.4 1385.84C293.4 1359.4 293.4 1330.68 293.4 1300.28C293.4 1285.08 293.4 1269.49 293.4 1253.52V1204.8C293.88 1204.32 292.36 1205.76 294.48 1203.68H341.68V1204.72C341.68 1291.64 341.32 1368.72 341.2 1423.88C341.2 1451.32 341.2 1473.36 340.92 1488.68C340.92 1496.16 340.92 1502 340.92 1506.08C340.92 1507.96 340.92 1509.48 340.92 1510.56C340.92 1511.64 340.64 1512 340.64 1512Z" fill="#263238"/>
<path d="M1256.56 1169.64H202.52V1218.84H1256.56V1169.64Z" fill="#455A64"/>
<path d="M1256.56 1218.84C1256.56 1218.84 1256.56 1217.84 1256.56 1215.84C1256.56 1213.84 1256.56 1210.84 1256.56 1206.8C1256.56 1198.8 1256.56 1186.44 1256.56 1169.64L1256.84 1169.96L202.84 1170.68L203.88 1169.64V1218.84L202.84 1217.8L949.64 1218.24L1174.48 1218.56H1235.52H1251.52H1256.96H1251.64H1235.88H1175.12L950.52 1218.88L202.52 1220H201.48V1168.6H202.56L1256.56 1169.36H1256.88V1169.64C1256.88 1186.52 1256.88 1198.84 1256.88 1206.96C1256.88 1210.96 1256.88 1213.96 1256.88 1215.96C1256.88 1217.96 1256.56 1218.84 1256.56 1218.84Z" fill="#263238"/>
<path d="M1259.28 1243.44H205.24V1292.64H1259.28V1243.44Z" fill="#455A64"/>
<path d="M1259.28 1292.64C1259.28 1292.64 1259.28 1291.64 1259.28 1289.64C1259.28 1287.64 1259.28 1284.64 1259.28 1280.6C1259.28 1272.6 1259.28 1260.24 1259.28 1243.44L1259.56 1243.72L205.6 1244.48L206.64 1243.44V1292.64L205.6 1291.6L952.001 1292L1176.84 1292.28H1237.88H1253.88H1259.32H1254.04H1238.28H1177.48L952.881 1292.6L205.28 1293.04H204.24V1242.4H205.36L1259.32 1243.16H1259.64V1243.44C1259.64 1260.32 1259.64 1272.64 1259.64 1280.76C1259.64 1284.76 1259.64 1287.72 1259.64 1289.72C1259.64 1291.72 1259.28 1292.64 1259.28 1292.64Z" fill="#263238"/>
<path d="M1259.28 1319.96H205.24V1369.16H1259.28V1319.96Z" fill="#455A64"/>
<path d="M1259.28 1369.16C1259.28 1369.16 1259.28 1368.16 1259.28 1366.16C1259.28 1364.16 1259.28 1361.16 1259.28 1357.12C1259.28 1349.12 1259.28 1336.76 1259.28 1319.96L1259.56 1320.24L205.6 1321L206.64 1319.96V1369.16L205.6 1368.12L952.441 1368.56L1177.28 1368.88H1238.32H1254.32H1259.76H1254.48H1238.72H1177.92L953.321 1369.2L205.72 1369.64H204.68V1318.92H205.8L1259.76 1319.68H1260.08V1320C1260.08 1336.88 1260.08 1349.2 1260.08 1357.32C1260.08 1361.32 1260.08 1364.28 1260.08 1366.32C1260.08 1368.36 1259.28 1369.16 1259.28 1369.16Z" fill="#263238"/>
<path d="M1259.28 1396.48H205.24V1445.68H1259.28V1396.48Z" fill="#455A64"/>
<path d="M1259.28 1445.68C1259.28 1445.68 1259.28 1444.68 1259.28 1442.68C1259.28 1440.68 1259.28 1437.68 1259.28 1433.64C1259.28 1425.64 1259.28 1413.28 1259.28 1396.48L1259.56 1396.8L205.6 1397.52L206.64 1396.48V1445.68L205.6 1444.64L952.441 1445.08L1177.28 1445.4H1238.32H1254.32H1259.76H1254.48H1238.72H1177.92L953.321 1445.72L205.72 1446.16H204.68V1395.44H205.8L1259.76 1396.2H1260.08V1396.48C1260.08 1413.36 1260.08 1425.68 1260.08 1433.8C1260.08 1437.8 1260.08 1440.8 1260.08 1442.8C1260.08 1444.8 1259.28 1445.68 1259.28 1445.68Z" fill="#263238"/>
<path d="M1278.48 1487.44H159.48V1536.64H1278.48V1487.44Z" fill="#455A64"/>
<path d="M1278.48 1536.64C1278.48 1536.64 1278.48 1535.64 1278.48 1533.64C1278.48 1531.64 1278.48 1528.64 1278.48 1524.6C1278.48 1516.6 1278.48 1504.24 1278.48 1487.44L1278.8 1487.72L159.84 1488.48L160.88 1487.44V1536.64L159.84 1535.6L952.56 1536L1191.32 1536.32H1256.16H1273.04C1276.84 1536.32 1278.84 1536.32 1278.84 1536.32H1273.16H1256H1191.4L952.92 1536.64L159.4 1537.08H158.36V1486.4H159.44L1278.4 1487.16H1278.68V1487.44C1278.68 1504.32 1278.68 1516.64 1278.68 1524.76C1278.68 1528.76 1278.68 1531.72 1278.68 1533.72C1278.68 1535.72 1278.48 1536.64 1278.48 1536.64Z" fill="#263238"/>
<g opacity="0.3">
<path d="M1239.72 1536.64H1193.28V1552H1239.72V1536.64Z" fill="black"/>
</g>
<path d="M673.24 921.28L663.2 986.04L637.36 1045L599.08 1020.56L585.44 986.16L574.04 957.28C574.04 957.28 533.6 967.04 517.48 929.28C509.72 911.04 496.76 872.16 485.48 836.8C479.622 818.448 480.899 798.563 489.054 781.11C497.209 763.657 511.644 749.921 529.48 742.64L533.12 741.12C573.64 727.16 608.12 753.76 620.92 794.6L673.48 921.36" fill="#A2675F"/>
<path d="M574 957.28C591.678 950.39 606.9 938.385 617.72 922.8C617.72 922.8 617.28 955 577.96 967.16L574 957.28Z" fill="#7A4A45"/>
<path d="M510.16 865.72C510.723 867.143 511.822 868.288 513.221 868.909C514.62 869.53 516.207 869.577 517.64 869.04C518.352 868.81 519.012 868.44 519.579 867.951C520.146 867.461 520.609 866.863 520.941 866.192C521.273 865.521 521.467 864.79 521.511 864.042C521.556 863.295 521.45 862.546 521.2 861.84C520.637 860.417 519.537 859.271 518.138 858.651C516.74 858.03 515.153 857.983 513.72 858.52C513.007 858.75 512.347 859.12 511.78 859.609C511.213 860.098 510.75 860.696 510.418 861.368C510.086 862.039 509.892 862.77 509.848 863.518C509.804 864.265 509.91 865.014 510.16 865.72Z" fill="#263238"/>
<path d="M500.001 850.16C500.961 850.6 504.001 845.88 509.681 843.48C515.361 841.08 521.001 842.24 521.321 841.28C521.641 840.32 520.281 839.84 517.881 839.24C514.588 838.469 511.137 838.734 508.001 840C504.961 841.252 502.398 843.437 500.681 846.24C499.481 848.44 499.401 850 500.001 850.16Z" fill="#263238"/>
<path d="M561.081 843C561.644 844.424 562.743 845.569 564.142 846.19C565.541 846.811 567.128 846.858 568.561 846.32C569.277 846.095 569.941 845.727 570.512 845.24C571.084 844.753 571.551 844.155 571.887 843.484C572.223 842.812 572.42 842.079 572.467 841.33C572.514 840.58 572.41 839.829 572.161 839.12C571.589 837.704 570.489 836.565 569.093 835.946C567.697 835.326 566.114 835.274 564.681 835.8C563.964 836.026 563.301 836.393 562.729 836.881C562.158 837.368 561.69 837.965 561.354 838.637C561.019 839.309 560.821 840.041 560.774 840.791C560.727 841.541 560.831 842.292 561.081 843Z" fill="#263238"/>
<path d="M557.4 824.6C558.32 825.12 561.679 820.6 567.719 818.96C573.759 817.32 579.119 818.96 579.719 818.04C580.319 817.12 578.88 816.52 576.52 815.64C573.34 814.657 569.939 814.657 566.76 815.64C563.59 816.552 560.79 818.442 558.76 821.04C557.2 822.84 556.96 824.36 557.4 824.6Z" fill="#263238"/>
<path d="M555.721 881.44C552.253 881.732 548.838 882.472 545.561 883.64C544.001 884.08 542.481 884.36 541.801 883.64C541.028 882.166 540.735 880.488 540.961 878.84C540.961 874.653 540.881 870.253 540.721 865.64C540.161 846.96 539.121 831.84 538.401 831.88C537.681 831.92 537.441 847.08 538.001 865.76C538.001 870.36 538.321 874.72 538.441 878.92C538.26 881.101 538.839 883.277 540.081 885.08C540.51 885.526 541.036 885.867 541.619 886.075C542.202 886.284 542.826 886.354 543.441 886.28C544.361 886.156 545.262 885.914 546.121 885.56C549.477 884.584 552.701 883.2 555.721 881.44Z" fill="#263238"/>
<path d="M546.201 799.72C547.441 801.08 552.961 797.92 560.161 795.72C567.361 793.52 573.681 793.32 574.001 791.72C574.001 790.88 572.521 789.76 569.681 789.16C565.924 788.5 562.065 788.705 558.399 789.758C554.733 790.812 551.355 792.686 548.521 795.24C546.401 797.28 545.641 799.08 546.201 799.72Z" fill="#263238"/>
<path d="M491.52 827.2C493.12 828.08 496.56 825.08 501.36 823C506.16 820.92 510.68 820.24 511.04 818.44C511.04 817.6 510 816.56 507.68 816.04C504.663 815.452 501.537 815.844 498.76 817.16C495.928 818.371 493.549 820.442 491.96 823.08C490.8 825.12 490.8 826.72 491.52 827.2Z" fill="#263238"/>
<path d="M629.16 824C629.72 823.48 652.12 805.56 661.96 832C671.8 858.44 643.36 862.8 643.04 862.04C642.72 861.28 629.16 824 629.16 824Z" fill="#A2675F"/>
<path d="M647.36 848.88C647.36 848.88 647.92 848.88 648.84 849.08C650.096 849.119 651.322 848.692 652.28 847.88C653.561 846.186 654.368 844.183 654.621 842.075C654.874 839.966 654.563 837.829 653.72 835.88C652.942 833.596 651.656 831.517 649.96 829.8C649.414 829.063 648.693 828.472 647.862 828.082C647.032 827.691 646.117 827.512 645.2 827.56C644.618 827.615 644.074 827.874 643.664 828.291C643.254 828.708 643.005 829.257 642.96 829.84C642.96 830.72 643.24 831.16 642.96 831.28C642.68 831.4 642.24 831.04 642.04 829.88C641.949 829.17 642.104 828.449 642.48 827.84C642.994 827.014 643.814 826.424 644.76 826.2C645.921 826.016 647.109 826.128 648.214 826.527C649.319 826.926 650.305 827.598 651.08 828.48C653.039 830.357 654.52 832.674 655.4 835.24C657.24 840.6 656.36 846.6 652.96 849.12C652.332 849.587 651.607 849.908 650.84 850.06C650.072 850.212 649.279 850.192 648.52 850C647.64 849.48 647.28 848.96 647.36 848.88Z" fill="#7A4A45"/>
<path d="M463 794.12C462.382 791.388 462.584 788.534 463.58 785.915C464.576 783.297 466.323 781.031 468.6 779.4C466.5 777.402 465.143 774.748 464.752 771.876C464.361 769.003 464.96 766.083 466.45 763.596C467.94 761.11 470.233 759.204 472.95 758.195C475.668 757.185 478.648 757.13 481.4 758.04C480.683 756.08 480.442 753.977 480.697 751.905C480.952 749.833 481.697 747.852 482.869 746.125C484.042 744.397 485.608 742.974 487.439 741.972C489.27 740.969 491.314 740.417 493.4 740.36C492.311 738.1 492.022 735.536 492.579 733.09C493.136 730.643 494.508 728.459 496.468 726.893C498.429 725.327 500.863 724.473 503.372 724.471C505.881 724.469 508.317 725.318 510.28 726.88C510.86 724.072 512.063 721.431 513.801 719.151C515.54 716.871 517.768 715.011 520.322 713.709C522.877 712.407 525.691 711.696 528.557 711.629C531.423 711.561 534.268 712.139 536.88 713.32C541.436 709.467 547.248 707.421 553.213 707.568C559.177 707.715 564.881 710.047 569.24 714.12C573.622 712.676 578.334 712.567 582.778 713.806C587.222 715.046 591.198 717.577 594.201 721.08C597.034 720.173 600.056 720.03 602.962 720.663C605.869 721.297 608.557 722.686 610.756 724.69C612.954 726.694 614.585 729.242 615.485 732.077C616.385 734.913 616.521 737.935 615.881 740.84C617.799 741.095 619.634 741.789 621.241 742.868C622.848 743.946 624.185 745.381 625.149 747.06C626.112 748.739 626.675 750.617 626.795 752.549C626.915 754.481 626.589 756.415 625.841 758.2C628.154 758.384 630.369 759.218 632.23 760.606C634.091 761.993 635.521 763.878 636.358 766.044C637.194 768.209 637.401 770.567 636.956 772.845C636.51 775.123 635.43 777.229 633.841 778.92C637.841 777.8 641.481 782.24 641.841 786.4C641.659 790.552 641.258 794.691 640.641 798.8C640.641 802.24 641.56 805.6 641.72 809.04C641.849 812.271 641.271 815.49 640.027 818.475C638.784 821.459 636.905 824.136 634.521 826.32L635.521 826.84C637.561 829.88 633.881 834.08 630.201 834.04C626.543 833.511 623.128 831.894 620.401 829.4C616.794 827.246 613.542 824.548 610.761 821.4C609.4 819.787 608.602 817.774 608.487 815.667C608.371 813.56 608.945 811.473 610.121 809.72C607.557 809.713 605.041 809.034 602.822 807.749C600.604 806.465 598.762 804.62 597.48 802.4C594.955 797.943 593.261 793.063 592.48 788L587.68 765.88C582.885 767.654 577.696 768.081 572.676 767.115C567.655 766.149 562.995 763.827 559.201 760.4C557.972 762.314 556.349 763.943 554.441 765.18C552.533 766.417 550.383 767.233 548.135 767.573C545.886 767.914 543.591 767.772 541.402 767.155C539.213 766.539 537.181 765.464 535.44 764C535.665 769.294 533.868 774.475 530.414 778.493C526.96 782.511 522.108 785.066 516.841 785.64C520.081 790.6 512.48 799.56 507.76 803.16C503.878 805.404 499.369 806.317 494.92 805.76C494.92 805.76 488.04 814.88 482.24 814.96C476.44 815.04 467.36 811.44 468.48 805C465.822 801.856 463.944 798.128 463 794.12Z" fill="#263238"/>
<path d="M627.2 757.56C627.135 759.111 626.725 760.628 626 762C625.57 762.695 624.985 763.28 624.291 763.71C623.597 764.141 622.813 764.404 622 764.48C621.004 764.598 619.995 764.445 619.08 764.036C618.165 763.628 617.377 762.98 616.8 762.16L615.84 760.72L615.08 762.28C614.417 763.476 613.451 764.476 612.278 765.178C611.105 765.881 609.767 766.261 608.4 766.28C606.856 766.21 605.371 765.67 604.142 764.734C602.913 763.798 601.998 762.509 601.52 761.04L601.08 759.44L599.92 760.6C599.223 761.284 598.398 761.824 597.492 762.188C596.585 762.552 595.616 762.733 594.64 762.72C593.065 762.711 591.535 762.192 590.28 761.24C588.12 759.6 587.64 757.88 587.4 757.96C587.16 758.04 587.4 759.96 589.52 761.96C590.896 763.258 592.674 764.048 594.56 764.2C595.781 764.282 597.007 764.115 598.162 763.71C599.317 763.304 600.378 762.668 601.28 761.84L599.64 761.4C600.128 763.227 601.168 764.859 602.618 766.074C604.067 767.289 605.856 768.027 607.74 768.189C609.625 768.351 611.513 767.928 613.149 766.978C614.784 766.028 616.087 764.597 616.88 762.88H615.16C615.957 763.969 617.041 764.815 618.291 765.324C619.542 765.833 620.909 765.984 622.24 765.76C623.253 765.571 624.209 765.152 625.035 764.535C625.86 763.918 626.532 763.119 627 762.2C628.52 759.44 627.32 757.4 627.2 757.56Z" fill="#455A64"/>
<path d="M641.361 780.84C641.161 780.84 640.761 781.96 639.041 783.08C637.912 783.859 636.573 784.277 635.201 784.277C633.829 784.277 632.49 783.859 631.361 783.08L630.481 782.36L630.081 783.44C629.583 784.643 628.784 785.697 627.762 786.503C626.739 787.308 625.527 787.838 624.241 788.04C622.753 788.201 621.251 787.904 619.936 787.189C618.621 786.475 617.555 785.376 616.881 784.04L616.081 782.36L615.041 783.88C614.774 784.272 614.45 784.623 614.081 784.92C613.25 785.606 612.226 786.017 611.151 786.096C610.076 786.175 609.003 785.917 608.081 785.36C607.265 784.799 606.617 784.025 606.208 783.123C605.799 782.221 605.645 781.224 605.761 780.24L606.041 778.24L604.321 779.28C602.347 780.453 599.994 780.811 597.761 780.28C595.98 779.882 594.379 778.913 593.201 777.52C592.204 776.199 591.371 774.762 590.721 773.24C590.626 774.139 590.72 775.047 590.995 775.908C591.271 776.769 591.722 777.563 592.321 778.24C593.538 779.957 595.3 781.212 597.321 781.8C598.645 782.199 600.036 782.327 601.41 782.175C602.785 782.024 604.115 781.597 605.321 780.92L604.001 780C603.799 781.35 603.98 782.73 604.525 783.982C605.069 785.234 605.955 786.307 607.081 787.08C608.352 787.912 609.855 788.317 611.373 788.238C612.89 788.159 614.343 787.599 615.521 786.64C616.049 786.193 616.519 785.683 616.921 785.12H615.081C615.834 786.751 617.057 788.119 618.594 789.048C620.131 789.978 621.911 790.426 623.705 790.336C625.498 790.246 627.224 789.621 628.66 788.541C630.096 787.462 631.176 785.978 631.761 784.28L630.481 784.64C631.256 785.204 632.138 785.605 633.073 785.818C634.009 786.032 634.977 786.053 635.921 785.88C637.395 785.716 638.787 785.117 639.921 784.16C641.361 782.28 641.481 780.84 641.361 780.84Z" fill="#455A64"/>
<path d="M496.6 738.2C497.166 737.112 497.925 736.137 498.84 735.32C499.463 734.801 500.187 734.417 500.965 734.192C501.744 733.966 502.561 733.904 503.365 734.009C504.169 734.114 504.942 734.384 505.636 734.803C506.331 735.221 506.931 735.779 507.4 736.44L508.36 737.76L508.6 736.12C508.883 734.405 509.597 732.79 510.675 731.426C511.752 730.062 513.157 728.993 514.76 728.32C516.716 727.564 518.861 727.447 520.888 727.986C522.914 728.525 524.718 729.692 526.04 731.32L527.24 732.8L527.72 730.96C528.252 729.177 529.174 727.533 530.42 726.15C531.665 724.766 533.202 723.677 534.92 722.96C536.777 722.223 538.789 721.962 540.772 722.199C542.756 722.437 544.649 723.166 546.28 724.32C547.633 725.263 548.776 726.475 549.64 727.88L550.24 728.84L551.16 728.16C553.347 726.601 555.994 725.82 558.677 725.943C561.361 726.067 563.925 727.087 565.96 728.84C567.664 730.468 568.866 732.55 569.426 734.839C569.986 737.128 569.88 739.529 569.12 741.76L568.56 743.24L570.08 742.88C573.464 742.163 576.994 742.794 579.92 744.64C582.167 746.074 583.914 748.171 584.92 750.64C585.729 752.83 586.149 755.145 586.16 757.48C586.16 757.48 586.48 756.88 586.56 755.64C586.719 753.822 586.473 751.992 585.84 750.28C584.897 747.528 583.086 745.156 580.68 743.52C579.096 742.431 577.312 741.665 575.431 741.267C573.551 740.869 571.61 740.846 569.72 741.2L570.72 742.36C571.853 739.6 572.047 736.544 571.272 733.663C570.497 730.782 568.796 728.235 566.431 726.416C564.066 724.597 561.168 723.606 558.185 723.596C555.201 723.586 552.297 724.557 549.92 726.36L551.44 726.64C550.403 725.04 549.04 723.677 547.44 722.64C545.525 721.276 543.296 720.418 540.96 720.145C538.625 719.872 536.258 720.194 534.08 721.08C532.078 721.929 530.294 723.218 528.86 724.853C527.426 726.488 526.38 728.425 525.8 730.52L527.52 730.16C526.105 728.401 524.201 727.1 522.048 726.421C519.895 725.742 517.589 725.716 515.421 726.344C513.253 726.973 511.319 728.229 509.863 729.954C508.408 731.68 507.495 733.797 507.24 736.04L508.44 735.72C507.755 734.853 506.878 734.156 505.879 733.684C504.88 733.212 503.785 732.978 502.68 733C501.051 733.061 499.5 733.715 498.32 734.84C497.596 735.512 497.047 736.349 496.72 737.28C496.56 737.84 496.56 738.2 496.6 738.2Z" fill="#455A64"/>
<path d="M573.08 875.08C572.12 875.4 574.72 881.76 571.16 888.48C567.6 895.2 560.56 897.28 560.84 898.2C561.12 899.12 562.88 898.8 565.76 897.72C569.489 896.241 572.577 893.493 574.48 889.96C576.318 886.568 576.762 882.594 575.72 878.88C574.88 876 573.52 874.84 573.08 875.08Z" fill="#263238"/>
<path d="M534.12 990.28L502.44 1079.52L509.76 1177.12L529.76 1345.72C529.76 1345.72 604.04 1320.64 607.4 1323.16C610.76 1325.68 574.52 1152.24 574.52 1152.24L600.72 1011.12L599.04 969.56L534.12 990.28Z" fill="#FF725E"/>
<path d="M534.12 990.28L499.28 1070.28L427.28 1098.52L352 1121.84L362.56 1176C363.082 1178.63 364.138 1181.12 365.663 1183.33C367.187 1185.53 369.148 1187.4 371.424 1188.82C373.7 1190.24 376.242 1191.17 378.894 1191.57C381.545 1191.96 384.25 1191.81 386.84 1191.12L450.56 1174L509.92 1171.28L540.8 1099.52L534.12 990.28Z" fill="#FF725E"/>
<path d="M376.6 1099.56L381.88 1093C387.076 1092.95 392.216 1094.08 396.92 1096.28C403.815 1101.95 408.869 1109.53 411.44 1118.08C412.019 1124.23 412.019 1130.41 411.44 1136.56L375.44 1099.56" fill="#A2675F"/>
<path d="M306.4 1060.68C306.4 1061.76 374.4 1133.8 374.4 1133.8L387.2 1146.44H428L348.8 1058.44L314.64 1052.6L306.4 1060.68Z" fill="#263238"/>
<path d="M582.2 1220.72C581.594 1219.94 581.071 1219.09 580.64 1218.2L576.64 1210.76C573.2 1204.28 568.32 1194.76 562.64 1182.76C555.883 1168.89 549.875 1154.67 544.64 1140.16C543.144 1135.93 541.902 1131.62 540.92 1127.24C540.411 1124.95 540.05 1122.62 539.84 1120.28C539.84 1117.96 539.84 1115.6 539.84 1113.24C539.84 1103.76 539.84 1093.96 540.32 1083.92C540.8 1071.2 541.44 1058.92 542.2 1047.24V1046.64L542.76 1046.4L563.84 1037.12L564.08 1038.96L548.08 1036.84H546.72L547.4 1035.68C557.8 1017.84 566.44 1002.92 572.64 992.24L579.8 980.24L581.76 977.12C581.959 976.736 582.215 976.386 582.52 976.08C582.397 976.487 582.222 976.877 582 977.24L580.28 980.52L573.52 992.84L548.96 1036.64L548.28 1035.32L564.28 1037.32L567.68 1037.72L564.56 1039.12L543.56 1048.48L544.16 1047.6C543.44 1059.28 542.8 1071.6 542.32 1084.24C541.96 1094.24 541.72 1104 541.8 1113.44C541.8 1115.8 541.8 1118.12 541.8 1120.44C541.973 1122.67 542.307 1124.89 542.8 1127.08C543.745 1131.38 544.933 1135.63 546.36 1139.8C552 1156.16 558.36 1170.44 563.92 1182.4C569.48 1194.36 574.04 1203.88 577.28 1210.4L580.96 1218C581.439 1218.87 581.854 1219.78 582.2 1220.72Z" fill="#263238"/>
<path d="M346.52 1099.56C346.52 1099.56 336.2 1107 336.48 1111.24C336.483 1113.11 336.939 1114.95 337.81 1116.6C338.681 1118.25 339.941 1119.66 341.48 1120.72C343.88 1121.52 351 1125.2 351 1125.2C351 1125.2 344.64 1131.28 346.52 1137.64C346.867 1139.34 347.59 1140.94 348.635 1142.32C349.68 1143.71 351.021 1144.84 352.56 1145.64C352.706 1150.07 353.599 1154.43 355.2 1158.56C357.63 1161.86 361.216 1164.12 365.24 1164.88C367.484 1169.44 370.163 1173.76 373.24 1177.8C376.33 1180.67 380.174 1182.6 384.32 1183.36C384.32 1183.36 393.84 1184.44 398.84 1181C402.236 1179.29 405.065 1176.64 406.988 1173.36C408.912 1170.08 409.846 1166.32 409.68 1162.52C409.68 1162.52 432.4 1151.16 432.64 1145.36C432.88 1139.56 430.28 1137.72 430.28 1137.72L418.92 1139.8C418.92 1139.8 417.32 1133.76 413.92 1133.2C410.52 1132.64 369.04 1142.72 369.04 1142.72C369.04 1142.72 397.28 1138.24 398.08 1132.68C398.88 1127.12 399.12 1122.4 394.88 1121.32C390.64 1120.24 360.6 1123.52 360.6 1123.52L359 1118.16C359 1118.16 367 1118.44 367 1111.32C367 1104.2 362.52 1102.6 362.52 1102.6L346.52 1099.56Z" fill="#A2675F"/>
<path d="M582.2 976L585.64 1003.56L564.32 1123.44L585.96 1226.92L698.12 1260.08L742.24 1241.04L727.16 950.56L687.08 922.4L671.68 912.04L613.92 999.48L582.2 976Z" fill="#FAFAFA"/>
<path d="M684.001 920.2L712.001 932.68L811.281 946.04L864.841 1227.72L871.561 1260.08L974.241 1413.72C975.355 1415.39 976.113 1417.27 976.469 1419.24C976.825 1421.21 976.77 1423.24 976.309 1425.19C975.847 1427.14 974.988 1428.98 973.786 1430.58C972.584 1432.19 971.064 1433.53 969.321 1434.52L885.321 1482.52C882.2 1484.12 878.599 1484.51 875.206 1483.63C871.812 1482.74 868.863 1480.64 866.921 1477.72L760.001 1316.72L707.041 1248.92C707.041 1248.92 675.321 1152.92 671.041 1112.08C667.71 1076.28 667.71 1040.24 671.041 1004.44C673.521 980 684.001 920.2 684.001 920.2Z" fill="#FF725E"/>
<path d="M811.119 946.04C817.582 949.433 823.195 954.242 827.538 960.109C831.881 965.976 834.842 972.748 836.2 979.92C842.52 1013.36 861.559 1071.68 868.719 1133.96C878.719 1221.08 855.279 1247.96 844.239 1263C833.199 1278.04 764.719 1309.96 764.719 1309.96L713.24 1241.4L770.239 1194.68L765.239 1073.68C765.239 1073.68 745.239 1046.16 755.239 1005.28C765.239 964.4 794.439 943.56 811.239 946.04H811.119Z" fill="#FF725E"/>
<g opacity="0.3">
<path d="M864.24 1225.44C856.44 1246.56 847.52 1264.4 829.36 1274.44C810 1285.16 783.08 1300.28 764.72 1309.96L778.16 1330.84C799.24 1327.6 838.16 1303.04 850.8 1285.88C863.034 1268.28 867.861 1246.57 864.24 1225.44Z" fill="black"/>
</g>
<path d="M764.001 1080C764.171 1080.59 764.292 1081.19 764.361 1081.8C764.601 1083.12 764.881 1084.88 765.281 1087.12C766.001 1091.96 767.081 1098.84 768.441 1107.68C771.161 1125.68 775.041 1151.68 779.801 1183.68V1184.08L779.481 1184.36L713.921 1242.12V1240.88L765.441 1309.4L764.161 1309.12C781.281 1300.48 799.001 1291.12 816.521 1280.76C821.521 1277.76 826.441 1274.76 831.201 1271.52C835.93 1268.47 840.363 1264.99 844.441 1261.12C851.385 1252.5 856.884 1242.82 860.721 1232.44C867.785 1212.61 871.055 1191.63 870.361 1170.6C869.882 1151.52 868.051 1132.5 864.881 1113.68C862.121 1095.96 858.921 1079.56 855.761 1064.64C849.481 1034.76 843.401 1010.8 839.161 994.28C837.001 986.28 835.161 979.72 834.161 975.28C833.601 973.16 833.161 971.52 832.881 970.32C832.681 969.764 832.546 969.187 832.481 968.6C832.481 968.6 832.721 969.16 833.081 970.24C833.441 971.32 833.921 973.08 834.561 975.16C835.841 979.44 837.681 985.84 839.961 994.08C844.441 1010.56 850.721 1034.48 857.201 1064.32C860.481 1079.24 863.761 1095.68 866.601 1113.44C869.853 1132.32 871.737 1151.41 872.241 1170.56C873.012 1191.86 869.755 1213.11 862.641 1233.2C858.709 1243.81 853.076 1253.72 845.961 1262.52C841.792 1266.53 837.237 1270.12 832.361 1273.24C827.561 1276.48 822.601 1279.52 817.601 1282.52C799.961 1292.96 782.281 1302.32 765.081 1310.92L764.321 1311.32L763.801 1310.64L712.401 1242L711.881 1241.28L712.521 1240.72L778.321 1183.2L778.081 1183.88C773.561 1151.88 770.081 1125.96 767.401 1107.88C766.201 1099.04 765.241 1091.88 764.601 1087.28C764.321 1085 764.081 1083.28 763.921 1081.92C763.908 1081.28 763.935 1080.64 764.001 1080Z" fill="#263238"/>
<path d="M691.321 1183.48C691.293 1182.54 691.374 1181.6 691.561 1180.68C691.801 1178.68 692.161 1176.04 692.561 1172.68C693.601 1165.56 695.001 1155.68 696.761 1143.6C700.241 1119.04 705.721 1085.2 711.041 1047.6C713.521 1029.44 715.881 1012.16 718.001 996.4L718.641 997.4L701.681 990.92L700.001 990.28L701.481 989.32L718.521 978.28L718.201 979.04C716.161 964.92 714.521 953.36 713.321 945.04C712.841 941.04 712.401 938.12 712.121 935.76C711.91 934.68 711.816 933.58 711.841 932.48C712.172 933.524 712.412 934.595 712.561 935.68C712.961 938.04 713.521 941.08 714.201 944.92C715.561 953.2 717.441 964.72 719.721 978.8V979.32L719.321 979.6L702.401 990.8L702.201 989.24L719.241 995.6L719.961 995.88V996.64C717.881 1012.4 715.561 1029.72 713.121 1047.88C707.841 1085.36 702.121 1119.2 698.241 1143.88C696.241 1155.88 694.601 1165.8 693.401 1172.88L692.001 1180.88C691.856 1181.77 691.629 1182.64 691.321 1183.48Z" fill="#263238"/>
<path d="M796.001 949.84C796.241 950.16 791.161 953.84 784.321 960.76C780.349 964.928 776.737 969.424 773.521 974.2C765.56 985.916 760.112 999.154 757.521 1013.08C756.477 1018.74 755.915 1024.48 755.841 1030.24C755.841 1040.12 756.921 1046.24 756.521 1046.24C755.982 1044.88 755.632 1043.45 755.481 1042C755.139 1040.35 754.899 1038.68 754.761 1037C754.512 1034.76 754.379 1032.5 754.361 1030.24C754.209 1024.37 754.624 1018.51 755.601 1012.72C756.89 1005.65 758.873 998.722 761.521 992.04C764.309 985.407 767.753 979.069 771.801 973.12C775.152 968.301 778.956 963.814 783.161 959.72C784.751 958.143 786.419 956.648 788.161 955.24C789.435 954.126 790.77 953.084 792.161 952.12C793.335 951.194 794.626 950.428 796.001 949.84Z" fill="#263238"/>
<path d="M509.321 1171.36C508.761 1171.36 506.921 1152 505.321 1128C503.721 1104 502.721 1084.56 503.321 1084.48C503.921 1084.4 505.721 1103.88 507.321 1127.84C508.921 1151.8 509.881 1171.32 509.321 1171.36Z" fill="#263238"/>
<path d="M847.48 1347.96L862.88 1379.4L934.2 1333.76L909.52 1305.8L847.48 1347.96Z" fill="#FF725E"/>
<path d="M847.48 1348C848.83 1346.82 850.261 1345.74 851.76 1344.76L864.32 1335.92L908.96 1305.04L909.68 1304.56L910.24 1305.2L935 1333.2L935.8 1334.12L934.76 1334.76L931.64 1336.76L863.28 1380L862.56 1380.44L862.24 1379.68L851.2 1356.32C850.04 1353.76 849.08 1351.68 848.36 1350.04C848.004 1349.36 847.71 1348.65 847.48 1347.92C847.981 1348.61 848.41 1349.35 848.76 1350.12C849.6 1351.76 850.68 1353.84 852.04 1356.36L863.56 1379.04L862.48 1378.76L930.48 1334.76L933.6 1332.76V1334.32C924.88 1324.44 916.56 1315 908.96 1306.32H910.24L865.56 1336.12L852.52 1344.64L848.96 1346.92L847.48 1348Z" fill="#263238"/>
<g opacity="0.3">
<path d="M848 1349.36C848.32 1349.96 864 1397.64 864 1397.64L930.52 1350.44L924.8 1340L862.88 1379.6L848 1349.36Z" fill="black"/>
</g>
<g opacity="0.3">
<path d="M713.84 945.84L725.84 984.84L713.84 990.28L729.64 998.04C729.64 998.04 704.76 1134.04 701.64 1146.44C698.52 1158.84 694.68 1162.84 694.68 1162.84L718.96 996.72L702 990.28L718.96 979.12L713.84 945.84Z" fill="black"/>
</g>
<path d="M450.68 1158.36C450.365 1149 448.846 1139.73 446.16 1130.76C442.815 1122.04 438.38 1113.77 432.96 1106.16C435.238 1107.8 437.191 1109.85 438.72 1112.2C446.862 1123.15 451.354 1136.39 451.56 1150.04C451.769 1152.84 451.471 1155.66 450.68 1158.36Z" fill="#263238"/>
<g opacity="0.3">
<path d="M502.72 1080.64C490.72 1110.24 495.16 1142.68 509.04 1171.36C506.88 1138.36 505.6 1112.64 502.72 1080.64Z" fill="black"/>
</g>
<path d="M675.32 944.84C674.78 946.248 674.082 947.589 673.24 948.84L667.04 959.2C661.84 968 655.04 980.24 648.12 994.2C643.48 1003.6 639.52 1012.6 636.12 1020.2L635.68 1021.32L634.76 1020.6C629.473 1016.38 624.5 1011.78 619.88 1006.84C618.027 1005.06 616.389 1003.08 615 1000.92C617 1002.52 618.885 1004.26 620.64 1006.12C625.48 1010.72 630.554 1015.08 635.84 1019.16L634.48 1019.52C637.56 1011.8 641.44 1002.76 646.08 993.28C651.941 981.317 658.458 969.686 665.6 958.44C668.36 954.12 670.72 950.72 672.4 948.4C673.224 947.098 674.205 945.903 675.32 944.84Z" fill="#263238"/>
<path d="M609.64 1000C608.067 1006.98 605.83 1013.8 602.96 1020.36L602.44 1021.76L601.32 1020.8L600.8 1020.32C594.982 1015.69 589.98 1010.12 586 1003.84C586.44 1003.44 593.04 1010.8 602 1018.76L602.52 1019.2L600.88 1019.64C603.165 1012.83 606.099 1006.25 609.64 1000Z" fill="#263238"/>
<path d="M621.4 1204.68C621.177 1204.07 621.069 1203.41 621.08 1202.76C621.08 1201.2 620.76 1199.36 620.56 1197.12C620.24 1191.88 619.76 1184.88 619.2 1176.36C618.12 1158.84 616.88 1134.64 615.8 1107.88C614.72 1081.12 614.16 1056.88 614.16 1039.32C614.16 1030.52 614.16 1023.32 614.44 1018.52C614.44 1016.28 614.44 1014.52 614.72 1012.88C614.719 1012.22 614.799 1011.56 614.96 1010.92C615.07 1011.57 615.07 1012.23 614.96 1012.88C614.96 1014.4 614.96 1016.28 614.96 1018.52C614.96 1023.76 615.2 1030.76 615.36 1039.28C615.72 1056.84 616.56 1081.04 617.6 1107.8C618.64 1134.56 619.64 1158.48 620.36 1176.28C620.68 1184.84 620.92 1191.84 621.12 1197.08C621.12 1199.32 621.12 1201.08 621.12 1202.72C621.274 1203.36 621.368 1204.02 621.4 1204.68Z" fill="#263238"/>
<path d="M387.2 1744.88L397.56 1842.52C397.56 1842.52 301.56 1885.88 301.92 1904.08L492 1890.84L482.12 1737.96L387.2 1744.88Z" fill="#FF725E"/>
<path d="M455.76 1830.2C457.605 1830.67 459.224 1831.78 460.323 1833.34C461.423 1834.89 461.933 1836.79 461.76 1838.68C461.399 1840.56 460.331 1842.23 458.775 1843.35C457.22 1844.46 455.296 1844.94 453.4 1844.68C451.403 1844.27 449.641 1843.1 448.473 1841.43C447.306 1839.76 446.822 1837.7 447.12 1835.68C447.688 1833.76 448.983 1832.13 450.73 1831.15C452.477 1830.16 454.539 1829.89 456.48 1830.4" fill="#E0E0E0"/>
<path d="M492.44 1894.8L491.48 1880L308.76 1893.92C308.76 1893.92 300.52 1898.2 301.92 1904.08L492.44 1894.8Z" fill="#E0E0E0"/>
<path d="M394.4 1841.8C394.4 1842.72 399.16 1842.8 403.96 1845.48C408.76 1848.16 411.44 1851.88 412.24 1851.44C413.04 1851 411.32 1845.76 405.48 1842.64C399.64 1839.52 394.16 1840.96 394.4 1841.8Z" fill="#263238"/>
<path d="M375.04 1851.44C375.04 1852.32 379.04 1853.64 382.44 1857.36C385.84 1861.08 387.08 1865.12 388 1865.04C388.92 1864.96 389.16 1859.64 384.8 1855.12C380.44 1850.6 375 1850.52 375.04 1851.44Z" fill="#263238"/>
<path d="M365.4 1876C366.24 1876 367.2 1871.4 364.48 1866.48C361.76 1861.56 357.24 1859.84 356.92 1860.64C356.6 1861.44 359.44 1864 361.64 1868.04C363.84 1872.08 364.44 1876 365.4 1876Z" fill="#263238"/>
<path d="M394.52 1819.28C394.96 1820.08 399.12 1818.52 404.4 1818.48C409.68 1818.44 413.88 1819.84 414.32 1819.04C414.76 1818.24 410.56 1815.04 404.36 1815.24C398.16 1815.44 394 1818.56 394.52 1819.28Z" fill="#263238"/>
<path d="M353.36 1350.76L265.36 1394.28C265.36 1394.28 191.52 1319.4 174.48 1325.88L252.72 1499.6L392.72 1437.4L353.36 1350.76Z" fill="#FF725E"/>
<path d="M297.04 1444.6C297.291 1446.5 296.829 1448.43 295.743 1450.01C294.657 1451.59 293.025 1452.71 291.16 1453.16C289.271 1453.48 287.332 1453.06 285.745 1451.99C284.157 1450.92 283.045 1449.27 282.64 1447.4C282.342 1445.38 282.826 1443.33 283.994 1441.65C285.161 1439.98 286.923 1438.82 288.92 1438.4C290.888 1438.33 292.809 1439.01 294.294 1440.3C295.78 1441.59 296.718 1443.4 296.92 1445.36" fill="#E0E0E0"/>
<path d="M249.12 1501.4L262.68 1495.36L186.32 1328.76C186.32 1328.76 179.48 1322.56 174.32 1325.88L249.12 1501.4Z" fill="#E0E0E0"/>
<path d="M264.92 1391.08C264.08 1391.48 265.6 1395.88 264.92 1401.28C264.24 1406.68 261.52 1410.52 262.2 1411.16C262.88 1411.8 267.24 1408.32 268.12 1401.76C269 1395.2 265.64 1390.52 264.92 1391.08Z" fill="#263238"/>
<path d="M249.16 1376.24C248.28 1376.24 248.48 1380.76 246.2 1385.24C243.92 1389.72 240.48 1392.28 240.88 1393.24C241.28 1394.2 246.36 1392.44 249.08 1386.8C251.8 1381.16 250 1376 249.16 1376.24Z" fill="#263238"/>
<path d="M222.72 1375.72C222.72 1376.56 227.64 1375.72 231.32 1371.72C235 1367.72 235.04 1362.64 234.16 1362.6C233.28 1362.56 231.92 1366.16 228.84 1369.6C225.76 1373.04 222.4 1374.84 222.72 1375.72Z" fill="#263238"/>
<path d="M286.08 1383.36C285.48 1384.08 288.4 1387.36 290.08 1392.4C291.76 1397.44 292.08 1401.76 293 1401.84C293.92 1401.92 295.36 1397 293 1391.24C290.64 1385.48 286.56 1382.64 286.08 1383.36Z" fill="#263238"/>
<path d="M396.32 1406.12C386.804 1408.49 378.169 1413.55 371.446 1420.69C364.723 1427.83 360.195 1436.76 358.4 1446.4C351.96 1480.28 375.28 1821.04 375.28 1821.04L494.88 1811.44L487.56 1581.84L484.6 1535.52L494.88 1527.52L705.081 1490.52L673.081 1403.64L637.92 1342.44L476.92 1382.44L396.32 1406.12Z" fill="#263238"/>
<path d="M792 1348.72C792 1348.72 705.04 1223 679.6 1204.72C658.64 1189.64 627.12 1189.68 607.6 1198.44C588.08 1207.2 283.6 1358.24 283.6 1358.24L328.28 1470.24L618.12 1369.8L661.32 1437.8L701.56 1491.08L814.52 1491.96C819.84 1491.96 844.12 1443.96 844.12 1443.96L792 1348.72Z" fill="#263238"/>
<path d="M357.28 1472.68C357.22 1472.3 357.22 1471.91 357.28 1471.52C357.28 1470.6 357.28 1469.48 357.28 1468.08C357.28 1466.68 357.28 1464.64 357.28 1462.44C357.28 1460.24 357.8 1457.68 358.12 1454.8C358.44 1451.92 359.36 1448.84 360 1445.36C360.36 1443.64 361.08 1441.92 361.64 1440.12C362.221 1438.22 362.943 1436.36 363.8 1434.56C367.503 1425.89 373.404 1418.33 380.92 1412.64C385.299 1409.31 390.285 1406.86 395.6 1405.44L412.92 1402.48L451.04 1396.12L538.44 1381.64L617.8 1368.64H618.44L618.8 1369.2C642.04 1405.48 660.92 1437.2 676.8 1457.68C684.48 1468.04 690.64 1476.28 694.96 1482.04C697 1484.8 698.6 1486.96 699.8 1488.52L701 1490.2L701.4 1490.8C701.4 1490.8 701.4 1490.8 700.88 1490.32L699.52 1488.72L694.44 1482.44C690.04 1476.92 683.64 1468.8 675.84 1458.44C659.64 1437.96 640.48 1406.44 617.16 1370.44L618.12 1370.88L538.76 1384L451.36 1398.32L413.2 1404.52L395.96 1407.32C390.838 1408.67 386.019 1410.97 381.76 1414.12C374.404 1419.64 368.591 1426.95 364.88 1435.36C363.994 1437.11 363.258 1438.93 362.68 1440.8C362.011 1442.49 361.437 1444.21 360.96 1445.96C360.122 1449.01 359.454 1452.11 358.96 1455.24L357.88 1462.8C357.88 1464.96 357.64 1466.8 357.56 1468.4C357.48 1470 357.56 1470.96 357.32 1471.84C357.329 1472.12 357.315 1472.4 357.28 1472.68Z" fill="#455A64"/>
<path d="M659.6 1292C659.901 1293.18 660.049 1294.39 660.04 1295.6C660.306 1298.89 660.306 1302.19 660.04 1305.48C659.588 1310.38 658.691 1315.22 657.36 1319.96C655.672 1325.74 653.449 1331.35 650.72 1336.72C647.851 1342.01 644.504 1347.03 640.72 1351.72C637.561 1355.49 634.081 1358.99 630.32 1362.16C627.817 1364.3 625.141 1366.22 622.32 1367.92C621.326 1368.63 620.235 1369.2 619.08 1369.6C618.88 1369.28 623.08 1366.56 629.36 1361.04C632.91 1357.8 636.2 1354.28 639.2 1350.52C642.845 1345.89 646.084 1340.95 648.88 1335.76C651.553 1330.5 653.774 1325.03 655.52 1319.4C656.915 1314.8 657.932 1310.09 658.56 1305.32C659.48 1297.2 659.2 1292 659.6 1292Z" fill="#455A64"/>
<path d="M1667.6 1690.72L1144.2 1690.44C1113.97 1690.42 1084.98 1678.39 1063.61 1657.01C1042.24 1635.63 1030.24 1606.63 1030.24 1576.4L1030.52 264C1030.52 249.023 1033.47 234.192 1039.2 220.356C1044.94 206.519 1053.34 193.948 1063.94 183.362C1074.53 172.775 1087.11 164.379 1100.95 158.655C1114.79 152.93 1129.62 149.99 1144.6 150L1668 150.48C1698.23 150.501 1727.21 162.525 1748.58 183.91C1769.95 205.294 1781.96 234.289 1781.96 264.52L1781.72 1576.76C1781.71 1591.74 1778.75 1606.56 1773.01 1620.39C1767.26 1634.23 1758.86 1646.79 1748.26 1657.37C1737.66 1667.96 1725.08 1676.35 1711.24 1682.07C1697.4 1687.79 1682.57 1690.73 1667.6 1690.72Z" fill="#263238"/>
<path d="M1667.44 196.88H1565.96C1559.28 197.038 1552.94 199.838 1548.32 204.667C1543.7 209.496 1541.18 215.959 1541.32 222.64V241.04C1541.4 244.35 1540.82 247.641 1539.62 250.727C1538.42 253.813 1536.63 256.633 1534.34 259.025C1532.05 261.417 1529.31 263.335 1526.28 264.669C1523.25 266.003 1519.99 266.727 1516.68 266.8H1318.88C1315.57 266.727 1312.31 266.003 1309.28 264.669C1306.25 263.335 1303.51 261.417 1301.22 259.025C1298.94 256.633 1297.14 253.813 1295.94 250.727C1294.74 247.641 1294.17 244.35 1294.24 241.04V222.4C1294.38 215.719 1291.86 209.256 1287.25 204.427C1282.63 199.598 1276.28 196.798 1269.6 196.64H1233.88H1145.08C1123.86 196.64 1103.51 205.069 1088.51 220.072C1073.51 235.074 1065.08 255.423 1065.08 276.64L1064.84 1557.48C1064.84 1578.66 1073.24 1598.98 1088.2 1613.98C1103.16 1628.97 1123.46 1637.43 1144.64 1637.48L1667.04 1637.76C1688.26 1637.76 1708.61 1629.33 1723.61 1614.33C1738.61 1599.32 1747.04 1578.98 1747.04 1557.76L1747.32 276.92C1747.33 255.717 1738.92 235.376 1723.95 220.368C1708.97 205.36 1688.64 196.912 1667.44 196.88Z" fill="white"/>
<path d="M1747.28 276.76C1747.28 255.543 1738.85 235.194 1723.85 220.192C1708.84 205.189 1688.5 196.76 1667.28 196.76H1565.8C1559.12 196.918 1552.77 199.718 1548.15 204.547C1543.54 209.376 1541.02 215.839 1541.16 222.52V240.92C1541.23 244.23 1540.66 247.521 1539.46 250.607C1538.26 253.693 1536.46 256.513 1534.18 258.905C1531.89 261.297 1529.15 263.215 1526.12 264.549C1523.09 265.883 1519.83 266.607 1516.52 266.68H1318.72C1315.41 266.607 1312.15 265.883 1309.12 264.549C1306.09 263.215 1303.35 261.297 1301.06 258.905C1298.77 256.513 1296.98 253.693 1295.78 250.607C1294.58 247.521 1294.01 244.23 1294.08 240.92V222.4C1294.22 215.719 1291.7 209.256 1287.08 204.427C1282.47 199.598 1276.12 196.798 1269.44 196.64H1233.72H1144.92C1123.7 196.64 1103.35 205.069 1088.35 220.072C1073.35 235.074 1064.92 255.423 1064.92 276.64L1064.68 399.12H1747.24L1747.28 276.76Z" fill="#F5F5F5"/>
<path d="M1691.76 321.76C1691.76 322.12 1679.52 322.56 1664.44 322.68C1655.33 322.993 1646.21 322.833 1637.12 322.2C1655.31 321.12 1673.55 320.973 1691.76 321.76Z" fill="#263238"/>
<path d="M1692 335.72C1682.93 336.503 1673.82 336.81 1664.72 336.64C1655.61 336.954 1646.49 336.794 1637.4 336.16C1637.4 335.8 1649.6 335.4 1664.72 335.24C1679.84 335.08 1692 335.36 1692 335.72Z" fill="#263238"/>
<path d="M1692 349.72C1692 350.08 1679.8 350.48 1664.72 350.6C1655.61 350.913 1646.49 350.766 1637.4 350.16C1655.58 349.08 1673.8 348.933 1692 349.72Z" fill="#263238"/>
<path d="M1216.44 1288.96L1219.2 1283.16C1224.06 1287.1 1230.14 1289.22 1236.4 1289.16C1245.36 1289.16 1249.24 1285.68 1249.24 1281.16C1249.24 1268.48 1217.72 1276.48 1217.72 1257.16C1217.72 1249.16 1223.96 1242.28 1237.72 1242.28C1243.63 1242.17 1249.44 1243.78 1254.44 1246.92L1252 1252.8C1247.73 1250.08 1242.78 1248.61 1237.72 1248.56C1228.88 1248.56 1225.08 1252.28 1225.08 1256.84C1225.08 1269.56 1256.6 1261.6 1256.6 1280.84C1256.6 1288.84 1250.2 1295.64 1236.6 1295.64C1229.3 1295.85 1222.17 1293.48 1216.44 1288.96Z" fill="#263238"/>
<path d="M1262.68 1275.2C1262.64 1272.49 1263.15 1269.8 1264.2 1267.3C1265.24 1264.8 1266.79 1262.54 1268.74 1260.66C1270.7 1258.78 1273.02 1257.33 1275.56 1256.39C1278.1 1255.45 1280.81 1255.05 1283.52 1255.2C1286.7 1255.01 1289.87 1255.7 1292.69 1257.18C1295.51 1258.66 1297.87 1260.88 1299.52 1263.6L1294.12 1267.08C1292.96 1265.3 1291.37 1263.85 1289.5 1262.86C1287.62 1261.87 1285.52 1261.38 1283.4 1261.44C1279.85 1261.63 1276.51 1263.17 1274.07 1265.75C1271.63 1268.33 1270.26 1271.75 1270.26 1275.3C1270.26 1278.85 1271.63 1282.27 1274.07 1284.85C1276.51 1287.43 1279.85 1288.97 1283.4 1289.16C1285.52 1289.23 1287.62 1288.74 1289.5 1287.75C1291.38 1286.76 1292.97 1285.31 1294.12 1283.52L1299.52 1286.96C1297.86 1289.68 1295.5 1291.9 1292.68 1293.39C1289.87 1294.87 1286.7 1295.57 1283.52 1295.4C1280.8 1295.55 1278.07 1295.13 1275.52 1294.18C1272.97 1293.23 1270.64 1291.76 1268.68 1289.86C1266.72 1287.96 1265.18 1285.68 1264.15 1283.16C1263.11 1280.63 1262.62 1277.92 1262.68 1275.2Z" fill="#263238"/>
<path d="M1340 1271.12V1294.88H1333.24V1289.68C1331.74 1291.63 1329.77 1293.18 1327.51 1294.16C1325.25 1295.15 1322.78 1295.55 1320.32 1295.32C1311.4 1295.32 1305.72 1290.56 1305.72 1283.72C1305.72 1276.88 1309.72 1272.2 1321.72 1272.2H1333.04V1270.8C1333.04 1264.8 1329.52 1261.28 1322.48 1261.28C1317.96 1261.24 1313.56 1262.74 1310 1265.52L1307 1260.16C1311.72 1256.73 1317.45 1254.95 1323.28 1255.12C1333.92 1255.12 1340 1260.32 1340 1271.12ZM1332.88 1282.84V1277.36H1321.88C1314.8 1277.36 1312.8 1280.08 1312.8 1283.44C1312.8 1286.8 1316.08 1289.84 1321.48 1289.84C1323.87 1290.02 1326.26 1289.44 1328.31 1288.18C1330.36 1286.92 1331.96 1285.05 1332.88 1282.84Z" fill="#263238"/>
<path d="M1390.64 1272.2V1294.88H1383.48V1273.04C1383.48 1265.32 1379.48 1261.52 1372.88 1261.52C1371.15 1261.39 1369.42 1261.64 1367.8 1262.26C1366.19 1262.88 1364.73 1263.85 1363.53 1265.1C1362.33 1266.35 1361.43 1267.85 1360.88 1269.5C1360.33 1271.14 1360.15 1272.88 1360.36 1274.6V1294.88H1353.24V1255.48H1360V1261.44C1361.69 1259.33 1363.86 1257.65 1366.33 1256.55C1368.8 1255.45 1371.5 1254.96 1374.2 1255.12C1384 1255.12 1390.64 1260.64 1390.64 1272.2Z" fill="#263238"/>
<path d="M1441.24 1272.2V1294.88H1434.12V1273.04C1434.12 1265.32 1430.12 1261.52 1423.48 1261.52C1421.76 1261.39 1420.02 1261.64 1418.41 1262.26C1416.79 1262.88 1415.34 1263.85 1414.14 1265.1C1412.95 1266.36 1412.05 1267.86 1411.5 1269.5C1410.96 1271.14 1410.79 1272.88 1411 1274.6V1294.88H1404V1255.48H1410.84V1261.44C1412.53 1259.32 1414.7 1257.64 1417.17 1256.54C1419.64 1255.44 1422.34 1254.96 1425.04 1255.12C1434.48 1255.12 1441.24 1260.64 1441.24 1272.2Z" fill="#263238"/>
<path d="M1453.24 1243.28C1453.2 1242.31 1453.45 1241.36 1453.96 1240.54C1454.47 1239.71 1455.21 1239.06 1456.09 1238.67C1456.98 1238.27 1457.96 1238.15 1458.91 1238.31C1459.86 1238.48 1460.74 1238.93 1461.44 1239.6C1462.13 1240.27 1462.61 1241.14 1462.81 1242.09C1463.01 1243.03 1462.92 1244.02 1462.56 1244.91C1462.19 1245.81 1461.56 1246.57 1460.76 1247.11C1459.95 1247.65 1459.01 1247.93 1458.04 1247.92C1457.42 1247.94 1456.8 1247.83 1456.22 1247.6C1455.64 1247.38 1455.11 1247.04 1454.67 1246.61C1454.22 1246.18 1453.86 1245.66 1453.62 1245.09C1453.37 1244.52 1453.24 1243.9 1453.24 1243.28ZM1454.48 1255.48H1461.64V1294.88H1454.48V1255.48Z" fill="#263238"/>
<path d="M1512.64 1272.2V1294.88H1505.48V1273.04C1505.48 1265.32 1501.48 1261.52 1494.84 1261.52C1493.11 1261.39 1491.38 1261.64 1489.77 1262.26C1488.15 1262.88 1486.69 1263.85 1485.5 1265.1C1484.31 1266.36 1483.41 1267.86 1482.86 1269.5C1482.32 1271.14 1482.15 1272.88 1482.36 1274.6V1294.88H1475.24V1255.48H1482.08V1261.44C1483.77 1259.33 1485.94 1257.65 1488.41 1256.55C1490.88 1255.45 1493.58 1254.96 1496.28 1255.12C1505.84 1255.12 1512.64 1260.64 1512.64 1272.2Z" fill="#263238"/>
<path d="M1563.76 1255.48V1289.56C1563.76 1303.44 1556.72 1309.76 1543.32 1309.76C1536.56 1310.04 1529.91 1307.96 1524.52 1303.88L1527.92 1298.4C1532.24 1301.79 1537.59 1303.6 1543.08 1303.52C1552.4 1303.52 1556.64 1299.2 1556.64 1290.28V1287.16C1554.87 1289.16 1552.68 1290.74 1550.22 1291.79C1547.77 1292.84 1545.11 1293.34 1542.44 1293.24C1539.86 1293.36 1537.29 1292.95 1534.87 1292.05C1532.46 1291.14 1530.25 1289.76 1528.39 1287.98C1526.52 1286.2 1525.04 1284.05 1524.02 1281.68C1523.01 1279.31 1522.49 1276.76 1522.49 1274.18C1522.49 1271.6 1523.01 1269.05 1524.02 1266.68C1525.04 1264.31 1526.52 1262.16 1528.39 1260.38C1530.25 1258.6 1532.46 1257.22 1534.87 1256.31C1537.29 1255.41 1539.86 1255 1542.44 1255.12C1545.2 1255.01 1547.95 1255.54 1550.48 1256.66C1553 1257.78 1555.23 1259.47 1557 1261.6V1255.48H1563.76ZM1556.76 1274.16C1556.91 1271.44 1556.24 1268.74 1554.84 1266.4C1553.44 1264.06 1551.37 1262.2 1548.89 1261.06C1546.42 1259.91 1543.66 1259.54 1540.97 1259.98C1538.29 1260.42 1535.79 1261.66 1533.82 1263.54C1531.84 1265.42 1530.47 1267.84 1529.89 1270.5C1529.31 1273.17 1529.55 1275.94 1530.56 1278.47C1531.58 1281 1533.33 1283.16 1535.59 1284.68C1537.85 1286.2 1540.52 1287.01 1543.24 1287C1544.99 1287.13 1546.75 1286.9 1548.41 1286.31C1550.07 1285.72 1551.58 1284.79 1552.85 1283.58C1554.13 1282.37 1555.13 1280.91 1555.81 1279.29C1556.48 1277.66 1556.8 1275.92 1556.76 1274.16Z" fill="#263238"/>
<path d="M1574 1290.2C1573.99 1289.53 1574.11 1288.87 1574.37 1288.25C1574.62 1287.63 1574.99 1287.07 1575.47 1286.6C1575.94 1286.12 1576.51 1285.75 1577.13 1285.51C1577.75 1285.26 1578.41 1285.14 1579.08 1285.16C1580.43 1285.16 1581.72 1285.69 1582.67 1286.65C1583.63 1287.6 1584.16 1288.89 1584.16 1290.24C1584.16 1291.58 1583.63 1292.88 1582.67 1293.83C1581.72 1294.78 1580.43 1295.32 1579.08 1295.32C1578.41 1295.32 1577.74 1295.19 1577.12 1294.94C1576.5 1294.68 1575.94 1294.3 1575.46 1293.83C1574.99 1293.35 1574.62 1292.78 1574.36 1292.16C1574.11 1291.54 1573.99 1290.87 1574 1290.2Z" fill="#263238"/>
<path d="M1590.88 1290.2C1590.87 1289.53 1590.99 1288.87 1591.25 1288.25C1591.5 1287.63 1591.87 1287.07 1592.35 1286.6C1592.82 1286.12 1593.39 1285.75 1594.01 1285.51C1594.63 1285.26 1595.29 1285.14 1595.96 1285.16C1597.31 1285.16 1598.6 1285.69 1599.55 1286.65C1600.51 1287.6 1601.04 1288.89 1601.04 1290.24C1601.04 1291.58 1600.51 1292.88 1599.55 1293.83C1598.6 1294.78 1597.31 1295.32 1595.96 1295.32C1595.29 1295.32 1594.62 1295.19 1594 1294.94C1593.38 1294.68 1592.82 1294.3 1592.34 1293.83C1591.87 1293.35 1591.5 1292.78 1591.24 1292.16C1590.99 1291.54 1590.87 1290.87 1590.88 1290.2Z" fill="#263238"/>
<path d="M1607.76 1290.2C1607.75 1289.53 1607.87 1288.87 1608.13 1288.25C1608.38 1287.63 1608.75 1287.07 1609.23 1286.6C1609.7 1286.12 1610.27 1285.75 1610.89 1285.51C1611.51 1285.26 1612.17 1285.14 1612.84 1285.16C1614.19 1285.16 1615.48 1285.69 1616.43 1286.65C1617.38 1287.6 1617.92 1288.89 1617.92 1290.24C1617.92 1291.58 1617.38 1292.88 1616.43 1293.83C1615.48 1294.78 1614.19 1295.32 1612.84 1295.32C1612.17 1295.32 1611.5 1295.19 1610.88 1294.94C1610.26 1294.68 1609.69 1294.3 1609.22 1293.83C1608.75 1293.35 1608.38 1292.78 1608.12 1292.16C1607.87 1291.54 1607.75 1290.87 1607.76 1290.2Z" fill="#263238"/>
<path d="M1608.04 1361.28H1190.88C1154.16 1361.28 1124.4 1391.05 1124.4 1427.76V1441.88C1124.4 1478.6 1154.16 1508.36 1190.88 1508.36H1608.04C1644.76 1508.36 1674.52 1478.6 1674.52 1441.88V1427.76C1674.52 1391.05 1644.76 1361.28 1608.04 1361.28Z" fill="#EBEBEB"/>
<path d="M1230.6 1421.52L1221.36 1446.24H1217.08L1209.92 1427.48L1202.72 1446.24H1198.4L1189.24 1421.52H1193.48L1200.64 1441.2L1208.12 1421.52H1212L1219.32 1441.32L1226.72 1421.52H1230.6Z" fill="#263238"/>
<path d="M1272 1421.52L1262.76 1446.24H1258.48L1251.36 1427.48L1244.12 1446.24H1240L1230.8 1421.52H1235.04L1242.24 1441.2L1249.68 1421.52H1253.48L1260.8 1441.32L1268.16 1421.52H1272Z" fill="#263238"/>
<path d="M1313.72 1421.52L1304.52 1446.24H1300.2L1293.08 1427.48L1285.84 1446.24H1281.56L1272.36 1421.52H1276.6L1283.8 1441.2L1291.24 1421.52H1295.04L1302.36 1441.32L1309.72 1421.52H1313.72Z" fill="#263238"/>
<path d="M1314.64 1443.32C1314.63 1442.9 1314.7 1442.48 1314.86 1442.09C1315.01 1441.7 1315.24 1441.34 1315.54 1441.05C1315.83 1440.75 1316.19 1440.51 1316.57 1440.35C1316.96 1440.19 1317.38 1440.11 1317.8 1440.12C1318.65 1440.12 1319.46 1440.46 1320.06 1441.06C1320.66 1441.66 1321 1442.47 1321 1443.32C1321 1444.17 1320.66 1444.98 1320.06 1445.58C1319.46 1446.18 1318.65 1446.52 1317.8 1446.52C1317.38 1446.52 1316.97 1446.44 1316.58 1446.27C1316.2 1446.11 1315.85 1445.88 1315.55 1445.58C1315.26 1445.28 1315.03 1444.93 1314.87 1444.54C1314.71 1444.15 1314.63 1443.74 1314.64 1443.32Z" fill="#263238"/>
<path d="M1324.2 1443.64L1326.08 1440.08C1328.67 1441.75 1331.68 1442.64 1334.76 1442.64C1338.76 1442.64 1340.6 1441.4 1340.6 1439.28C1340.6 1433.76 1325 1438.56 1325 1428.72C1325 1424.28 1329 1421.28 1335.32 1421.28C1338.46 1421.23 1341.57 1422.01 1344.32 1423.52L1342.4 1427.08C1340.27 1425.75 1337.79 1425.07 1335.28 1425.12C1331.28 1425.12 1329.44 1426.56 1329.44 1428.52C1329.44 1434.36 1345.08 1429.6 1345.08 1439.2C1345.08 1443.68 1341.08 1446.52 1334.44 1446.52C1330.81 1446.62 1327.24 1445.62 1324.2 1443.64Z" fill="#263238"/>
<path d="M1349.92 1413.88C1349.92 1413.48 1350 1413.1 1350.15 1412.73C1350.31 1412.37 1350.53 1412.04 1350.82 1411.77C1351.1 1411.5 1351.44 1411.29 1351.81 1411.15C1352.17 1411.01 1352.57 1410.94 1352.96 1410.96C1353.37 1410.91 1353.78 1410.95 1354.18 1411.07C1354.57 1411.2 1354.93 1411.4 1355.24 1411.68C1355.55 1411.95 1355.8 1412.29 1355.96 1412.66C1356.13 1413.04 1356.22 1413.45 1356.22 1413.86C1356.22 1414.27 1356.13 1414.68 1355.96 1415.05C1355.8 1415.43 1355.55 1415.77 1355.24 1416.04C1354.93 1416.31 1354.57 1416.52 1354.18 1416.64C1353.78 1416.77 1353.37 1416.81 1352.96 1416.76C1352.57 1416.77 1352.18 1416.71 1351.81 1416.58C1351.45 1416.44 1351.11 1416.23 1350.83 1415.96C1350.55 1415.69 1350.32 1415.37 1350.16 1415.01C1350.01 1414.65 1349.92 1414.27 1349.92 1413.88ZM1350.72 1421.52H1355.2V1446.24H1350.72V1421.52Z" fill="#263238"/>
<path d="M1377.6 1444.8C1376.05 1445.98 1374.14 1446.59 1372.2 1446.52C1371.14 1446.66 1370.06 1446.57 1369.04 1446.23C1368.03 1445.9 1367.1 1445.34 1366.33 1444.6C1365.56 1443.86 1364.97 1442.95 1364.6 1441.94C1364.23 1440.94 1364.09 1439.86 1364.2 1438.8V1425.2H1360.2V1421.52H1364.2V1416H1368.68V1421.4H1376V1425.08H1368.92V1438.48C1368.87 1439.02 1368.94 1439.56 1369.12 1440.07C1369.31 1440.57 1369.6 1441.04 1369.98 1441.42C1370.36 1441.8 1370.83 1442.09 1371.33 1442.28C1371.84 1442.46 1372.38 1442.53 1372.92 1442.48C1374.19 1442.49 1375.43 1442.06 1376.44 1441.28L1377.6 1444.8Z" fill="#263238"/>
<path d="M1404.44 1435.4H1384.44C1384.73 1437.52 1385.82 1439.45 1387.49 1440.79C1389.15 1442.13 1391.27 1442.78 1393.4 1442.6C1394.73 1442.65 1396.05 1442.41 1397.28 1441.9C1398.51 1441.39 1399.62 1440.62 1400.52 1439.64L1403 1442.52C1401.17 1444.37 1398.85 1445.65 1396.31 1446.21C1393.76 1446.77 1391.12 1446.58 1388.68 1445.67C1386.25 1444.75 1384.13 1443.15 1382.58 1441.06C1381.03 1438.97 1380.12 1436.48 1379.96 1433.88C1379.88 1432.22 1380.14 1430.56 1380.73 1429.01C1381.32 1427.46 1382.23 1426.04 1383.39 1424.86C1384.56 1423.67 1385.96 1422.74 1387.5 1422.13C1389.04 1421.51 1390.7 1421.22 1392.36 1421.28C1394.02 1421.25 1395.67 1421.56 1397.2 1422.2C1398.73 1422.84 1400.11 1423.79 1401.26 1424.99C1402.4 1426.19 1403.29 1427.61 1403.86 1429.17C1404.43 1430.73 1404.67 1432.39 1404.56 1434.04C1404.52 1434.4 1404.48 1434.96 1404.44 1435.4ZM1384.44 1432.16H1400.44C1400.44 1430.04 1399.6 1428.01 1398.1 1426.51C1396.6 1425.01 1394.56 1424.16 1392.44 1424.16C1390.32 1424.16 1388.28 1425.01 1386.78 1426.51C1385.28 1428.01 1384.44 1430.04 1384.44 1432.16Z" fill="#263238"/>
<path d="M1447.68 1421.52L1438.44 1446.24H1434.16L1427.04 1427.48L1420 1446.24H1415.72L1406.52 1421.52H1410.76L1417.96 1441.2L1425.4 1421.52H1429.2L1436.52 1441.32L1443.88 1421.52H1447.68Z" fill="#263238"/>
<path d="M1473.76 1435.4H1453.76C1454.05 1437.52 1455.14 1439.45 1456.81 1440.79C1458.47 1442.13 1460.59 1442.78 1462.72 1442.6C1464.05 1442.65 1465.38 1442.42 1466.61 1441.9C1467.83 1441.39 1468.94 1440.62 1469.84 1439.64L1472.32 1442.52C1470.49 1444.37 1468.17 1445.65 1465.63 1446.21C1463.08 1446.77 1460.44 1446.58 1458 1445.67C1455.57 1444.75 1453.45 1443.15 1451.9 1441.06C1450.35 1438.97 1449.44 1436.48 1449.28 1433.88C1449.2 1432.22 1449.46 1430.56 1450.05 1429.01C1450.64 1427.46 1451.55 1426.04 1452.71 1424.86C1453.88 1423.67 1455.28 1422.74 1456.82 1422.13C1458.36 1421.51 1460.02 1421.22 1461.68 1421.28C1463.34 1421.25 1464.99 1421.55 1466.53 1422.19C1468.07 1422.83 1469.45 1423.77 1470.6 1424.97C1471.75 1426.17 1472.64 1427.6 1473.21 1429.16C1473.79 1430.72 1474.03 1432.38 1473.92 1434.04C1473.88 1434.4 1473.8 1434.96 1473.76 1435.4ZM1453.76 1432.16H1469.76C1469.76 1430.04 1468.92 1428.01 1467.42 1426.51C1465.92 1425.01 1463.88 1424.16 1461.76 1424.16C1459.64 1424.16 1457.6 1425.01 1456.1 1426.51C1454.6 1428.01 1453.76 1430.04 1453.76 1432.16Z" fill="#263238"/>
<path d="M1505.68 1433.88C1505.77 1435.55 1505.51 1437.22 1504.92 1438.78C1504.32 1440.35 1503.41 1441.77 1502.24 1442.96C1501.06 1444.15 1499.65 1445.08 1498.09 1445.7C1496.54 1446.31 1494.87 1446.59 1493.2 1446.52C1491.5 1446.59 1489.8 1446.25 1488.26 1445.52C1486.72 1444.78 1485.38 1443.69 1484.36 1442.32V1446.32H1480V1411.72H1484.48V1425.32C1485.51 1424.02 1486.82 1422.99 1488.32 1422.29C1489.82 1421.6 1491.47 1421.26 1493.12 1421.32C1494.79 1421.24 1496.46 1421.51 1498.02 1422.11C1499.58 1422.72 1501 1423.64 1502.18 1424.82C1503.36 1426 1504.28 1427.42 1504.89 1428.98C1505.49 1430.54 1505.76 1432.21 1505.68 1433.88ZM1501.16 1433.88C1501.08 1432.26 1500.53 1430.69 1499.57 1429.38C1498.61 1428.06 1497.29 1427.06 1495.77 1426.49C1494.24 1425.92 1492.59 1425.81 1491 1426.17C1489.41 1426.53 1487.97 1427.35 1486.84 1428.52C1485.72 1429.7 1484.96 1431.17 1484.67 1432.77C1484.37 1434.37 1484.55 1436.02 1485.19 1437.52C1485.82 1439.02 1486.88 1440.3 1488.23 1441.2C1489.59 1442.1 1491.17 1442.59 1492.8 1442.6C1493.94 1442.66 1495.09 1442.47 1496.15 1442.04C1497.21 1441.62 1498.18 1440.97 1498.97 1440.15C1499.76 1439.32 1500.37 1438.33 1500.74 1437.25C1501.12 1436.17 1501.26 1435.02 1501.16 1433.88Z" fill="#263238"/>
<path d="M1509.24 1443.32C1509.23 1442.9 1509.3 1442.48 1509.46 1442.09C1509.61 1441.7 1509.84 1441.34 1510.14 1441.05C1510.43 1440.75 1510.79 1440.51 1511.17 1440.35C1511.56 1440.19 1511.98 1440.11 1512.4 1440.12C1513.25 1440.12 1514.06 1440.46 1514.66 1441.06C1515.26 1441.66 1515.6 1442.47 1515.6 1443.32C1515.6 1444.17 1515.26 1444.98 1514.66 1445.58C1514.06 1446.18 1513.25 1446.52 1512.4 1446.52C1511.98 1446.52 1511.57 1446.44 1511.18 1446.27C1510.8 1446.11 1510.44 1445.88 1510.15 1445.58C1509.86 1445.28 1509.63 1444.93 1509.47 1444.54C1509.31 1444.15 1509.23 1443.74 1509.24 1443.32Z" fill="#263238"/>
<path d="M1519.08 1433.88C1519.04 1432.17 1519.36 1430.48 1520.01 1428.9C1520.66 1427.32 1521.63 1425.9 1522.86 1424.72C1524.09 1423.53 1525.55 1422.62 1527.15 1422.02C1528.75 1421.43 1530.46 1421.18 1532.16 1421.28C1534.15 1421.17 1536.14 1421.6 1537.91 1422.53C1539.68 1423.46 1541.16 1424.85 1542.2 1426.56L1538.8 1428.76C1538.09 1427.63 1537.09 1426.71 1535.91 1426.08C1534.74 1425.46 1533.41 1425.15 1532.08 1425.2C1529.87 1425.35 1527.81 1426.33 1526.3 1427.94C1524.79 1429.56 1523.95 1431.69 1523.95 1433.9C1523.95 1436.11 1524.79 1438.24 1526.3 1439.85C1527.81 1441.47 1529.87 1442.45 1532.08 1442.6C1533.41 1442.64 1534.73 1442.34 1535.9 1441.73C1537.08 1441.11 1538.08 1440.2 1538.8 1439.08L1542.2 1441.2C1541.16 1442.91 1539.68 1444.31 1537.91 1445.24C1536.15 1446.18 1534.16 1446.62 1532.16 1446.52C1530.45 1446.61 1528.75 1446.35 1527.15 1445.76C1525.55 1445.16 1524.09 1444.24 1522.86 1443.05C1521.63 1441.87 1520.66 1440.44 1520.01 1438.86C1519.36 1437.28 1519.04 1435.59 1519.08 1433.88Z" fill="#263238"/>
<path d="M1545.36 1433.88C1545.32 1431.33 1546.04 1428.83 1547.42 1426.69C1548.81 1424.56 1550.8 1422.88 1553.14 1421.88C1555.48 1420.87 1558.06 1420.59 1560.56 1421.06C1563.07 1421.53 1565.37 1422.73 1567.19 1424.51C1569.01 1426.3 1570.25 1428.58 1570.77 1431.07C1571.29 1433.57 1571.05 1436.16 1570.09 1438.52C1569.13 1440.88 1567.49 1442.89 1565.38 1444.32C1563.27 1445.74 1560.79 1446.51 1558.24 1446.52C1556.55 1446.6 1554.86 1446.32 1553.28 1445.72C1551.69 1445.11 1550.25 1444.19 1549.05 1443C1547.84 1441.82 1546.89 1440.4 1546.25 1438.82C1545.62 1437.25 1545.31 1435.57 1545.36 1433.88ZM1566.52 1433.88C1566.52 1431.67 1565.64 1429.55 1564.08 1427.99C1562.52 1426.43 1560.41 1425.56 1558.2 1425.56C1555.99 1425.56 1553.88 1426.43 1552.32 1427.99C1550.76 1429.55 1549.88 1431.67 1549.88 1433.88C1549.88 1436.08 1550.76 1438.2 1552.32 1439.76C1553.88 1441.32 1555.99 1442.2 1558.2 1442.2C1560.41 1442.2 1562.52 1441.32 1564.08 1439.76C1565.64 1438.2 1566.52 1436.08 1566.52 1433.88Z" fill="#263238"/>
<path d="M1618.28 1432V1446.2H1613.84V1432.48C1613.84 1427.64 1611.48 1425.28 1607.44 1425.28C1606.38 1425.23 1605.33 1425.42 1604.36 1425.83C1603.39 1426.23 1602.51 1426.85 1601.81 1427.63C1601.1 1428.42 1600.57 1429.35 1600.27 1430.36C1599.96 1431.37 1599.88 1432.43 1600.04 1433.48V1446.2H1595.56V1432.48C1595.56 1427.64 1593.2 1425.28 1589.16 1425.28C1588.1 1425.23 1587.05 1425.42 1586.08 1425.83C1585.11 1426.23 1584.23 1426.85 1583.53 1427.63C1582.82 1428.42 1582.29 1429.35 1581.99 1430.36C1581.68 1431.37 1581.6 1432.43 1581.76 1433.48V1446.2H1577.28V1421.48H1581.56V1425.16C1582.54 1423.84 1583.83 1422.79 1585.32 1422.09C1586.81 1421.4 1588.44 1421.08 1590.08 1421.16C1591.8 1421.04 1593.52 1421.41 1595.04 1422.23C1596.56 1423.04 1597.82 1424.26 1598.68 1425.76C1599.76 1424.26 1601.2 1423.06 1602.86 1422.25C1604.52 1421.45 1606.36 1421.08 1608.2 1421.16C1609.62 1421.05 1611.04 1421.27 1612.36 1421.79C1613.69 1422.31 1614.88 1423.12 1615.84 1424.16C1616.81 1425.2 1617.53 1426.44 1617.95 1427.8C1618.38 1429.16 1618.49 1430.59 1618.28 1432Z" fill="#263238"/>
<path d="M1616.8 1462.48C1616.8 1463.04 1522.44 1463.52 1406.12 1463.52C1289.8 1463.52 1195.4 1463.04 1195.4 1462.48C1195.4 1461.92 1289.72 1461.44 1406.12 1461.44C1522.52 1461.44 1616.8 1461.88 1616.8 1462.48Z" fill="#263238"/>
<path d="M1176.56 883.52V908.28H1201.32V883.52V858.72H1176.56V883.52Z" fill="#263238"/>
<path d="M1201.32 734.92H1176.56V759.68H1201.32V734.92Z" fill="#263238"/>
<path d="M1354.36 1007.56H1329.6V1032.32H1354.36V1007.56Z" fill="#263238"/>
<path d="M1201.32 784.44V809.2H1176.56V833.96H1201.32V858.72H1226.08H1250.88V883.52H1275.64V858.72H1300.4V833.96V809.2H1275.64V833.96H1250.88H1226.08V809.2V784.44V759.68H1201.32V784.44Z" fill="#263238"/>
<path d="M1250.88 734.92H1226.08V759.68H1250.88H1275.64V734.92H1250.88Z" fill="#263238"/>
<path d="M1362.32 934H1375.6V909.24H1362.32H1349V934H1362.32Z" fill="#263238"/>
<path d="M1300.4 759.68H1275.64V784.44H1300.4V759.68Z" fill="#263238"/>
<path d="M1473.76 858.72H1449V883.48H1473.76V858.72Z" fill="#263238"/>
<path d="M1498.52 586.32H1473.76V611.08H1498.52V586.32Z" fill="#263238"/>
<path d="M1349.92 784.44V759.68H1374.68V734.92H1349.92V710.16H1325.16V734.92H1300.4V759.68H1325.16V784.44V809.2V833.96V858.72H1349.92V833.96V809.2H1374.68V784.44H1349.92Z" fill="#263238"/>
<path d="M1473.76 1032.08H1498.52V1007.32H1473.76H1449V1032.08H1473.76Z" fill="#263238"/>
<path d="M1449 586.32H1424.24V611.08H1449V586.32Z" fill="#263238"/>
<path d="M1442.8 784.44V759.68H1418.04V734.92H1393.28V759.68V784.44H1368.52V809.2H1393.28H1418.04V784.44H1442.8Z" fill="#263238"/>
<path d="M1582.56 734.92H1557.8V759.68H1582.56V734.92Z" fill="#263238"/>
<path d="M1325.88 858.72H1301.12V883.48H1325.88V858.72Z" fill="#263238"/>
<path d="M1424.24 710.16V685.4H1449V660.6H1473.76H1498.52V635.84H1473.76V611.08H1449V635.84H1424.24V660.6H1399.44V685.4H1374.68V710.16H1399.44H1424.24Z" fill="#263238"/>
<path d="M1424.24 883.52V858.719H1449V833.959H1424.24H1399.44V858.719H1374.68V883.52H1399.44H1424.24Z" fill="#263238"/>
<path d="M1498.52 982.56V957.76H1473.76H1449V933H1424.24V957.76H1399.44V982.56H1374.68H1349.92V1007.32H1374.68H1399.44H1424.24V982.56H1449V1007.32H1473.76V982.56H1498.52Z" fill="#263238"/>
<path d="M1399.44 611.08V586.32H1374.68H1349.92V611.08H1325.16V635.84H1349.92H1374.68V611.08H1399.44Z" fill="#263238"/>
<path d="M1399.44 635.84H1374.68V660.6H1399.44V635.84Z" fill="#263238"/>
<path d="M1461.36 734.92H1436.6V759.68V784.44V809.2H1461.36H1486.12V784.44H1461.36V759.68H1486.12V734.92H1510.88V710.16H1486.12V685.4H1461.36V710.16V734.92Z" fill="#263238"/>
<path d="M1374.68 660.6H1349.92V685.36H1374.68V660.6Z" fill="#263238"/>
<path d="M1449 908.28V933.04H1473.76H1498.52V908.28H1523.28H1548.04V883.52H1523.28H1498.52H1473.76V908.28H1449Z" fill="#263238"/>
<path d="M1582.56 809.2H1557.8V833.96H1582.56V809.2Z" fill="#263238"/>
<path d="M1498.52 833.959H1473.76V858.719H1498.52V833.959Z" fill="#263238"/>
<path d="M1560.44 759.68H1535.68H1510.88V784.44H1535.68V809.2H1560.44V784.44V759.68Z" fill="#263238"/>
<path d="M1548.04 833.959H1523.28V858.719H1548.04V833.959Z" fill="#263238"/>
<path d="M1275.64 983.04H1349.96V883.48H1250.4V908.28H1226.12V933.04H1250.4V957.8H1226.12V982.56H1250.4V983.04H1250.88V1007.32H1226.12V1056.84H1250.88V1032H1275.64V983.04ZM1330.88 902.52V964.44H1268.96V902.52H1330.88Z" fill="#263238"/>
<path d="M1597.56 883.52H1622.32V858.72H1597.56H1572.8H1548.04V883.52H1572.8H1597.56Z" fill="#263238"/>
<path d="M1597.56 784.44H1622.32V759.68V734.92H1597.56V759.68V784.44Z" fill="#263238"/>
<path d="M1400.4 909.24H1375.6V934V958.76H1400.4V934V909.24Z" fill="#263238"/>
<path d="M1647.08 883.52H1622.32V908.28H1647.08V883.52Z" fill="#263238"/>
<path d="M1647.12 833.96V809.2H1622.32V833.96V858.72H1647.12V833.96Z" fill="#263238"/>
<path d="M1201.32 1007.32H1176.56V1032.08V1056.84H1201.32V1032.08V1007.32Z" fill="#263238"/>
<path d="M1647.12 710.16V586.16H1523.12V710.16H1647.12ZM1541.84 691.56V604.88H1628.52V691.56H1541.84Z" fill="#263238"/>
<path d="M1609.96 623.48H1560.44V673H1609.96V623.48Z" fill="#263238"/>
<path d="M1647.12 933.04H1523.12V1056.84H1647.12V933.04ZM1541.84 1038.28V951.6H1628.52V1038.28H1541.84Z" fill="#263238"/>
<path d="M1609.96 970.159H1560.44V1019.68H1609.96V970.159Z" fill="#263238"/>
<path d="M1176.28 586.32V710.32H1300V586.32H1176.28ZM1281.52 604.88V691.56H1194.84V604.88H1281.52Z" fill="#263238"/>
<path d="M1262.92 623.48H1213.4V673H1262.92V623.48Z" fill="#263238"/>
<path d="M1140.96 672.64V584.64C1140.4 576.566 1142.88 568.573 1147.92 562.24C1150.94 558.909 1154.65 556.285 1158.8 554.557C1162.95 552.828 1167.43 552.037 1171.92 552.24H1264.4C1265.13 552.24 1265.83 551.949 1266.35 551.432C1266.87 550.914 1267.16 550.212 1267.16 549.48C1267.16 548.748 1266.87 548.046 1266.35 547.528C1265.83 547.011 1265.13 546.72 1264.4 546.72H1173.04C1165.3 546.332 1157.63 548.268 1151 552.28C1146.24 555.452 1142.32 559.743 1139.6 564.778C1136.88 569.813 1135.44 575.438 1135.4 581.16C1135.16 595.64 1135.4 610.16 1135.4 624.6V672.6C1135.48 673.28 1135.81 673.906 1136.32 674.361C1136.83 674.815 1137.5 675.066 1138.18 675.066C1138.86 675.066 1139.53 674.815 1140.04 674.361C1140.55 673.906 1140.88 673.28 1140.96 672.6V672.64Z" fill="#FF725E"/>
<path d="M1256.4 1098.68H1168.4C1160.33 1099.22 1152.34 1096.74 1146 1091.72C1142.67 1088.7 1140.05 1084.98 1138.32 1080.84C1136.6 1076.69 1135.8 1072.21 1136 1067.72V975.121C1136 974.389 1135.71 973.687 1135.19 973.169C1134.67 972.651 1133.97 972.361 1133.24 972.361C1132.51 972.361 1131.81 972.651 1131.29 973.169C1130.77 973.687 1130.48 974.389 1130.48 975.121V1066.6C1130.1 1074.34 1132.03 1082.01 1136.04 1088.64C1139.21 1093.4 1143.5 1097.31 1148.54 1100.02C1153.57 1102.74 1159.2 1104.17 1164.92 1104.2C1179.4 1104.44 1193.88 1104.2 1208.36 1104.2H1256.36C1257.09 1104.2 1257.79 1103.91 1258.31 1103.39C1258.83 1102.87 1259.12 1102.17 1259.12 1101.44C1259.12 1100.71 1258.83 1100.01 1258.31 1099.49C1257.79 1098.97 1257.09 1098.68 1256.36 1098.68H1256.4Z" fill="#FF725E"/>
<path d="M1679.76 974.24V1062.24C1680.32 1070.32 1677.84 1078.31 1672.8 1084.64C1669.78 1087.97 1666.07 1090.6 1661.92 1092.33C1657.77 1094.06 1653.29 1094.85 1648.8 1094.64H1556.2C1555.47 1094.64 1554.77 1094.93 1554.25 1095.45C1553.73 1095.97 1553.44 1096.67 1553.44 1097.4C1553.44 1098.13 1553.73 1098.83 1554.25 1099.35C1554.77 1099.87 1555.47 1100.16 1556.2 1100.16H1647.68C1655.42 1100.55 1663.09 1098.61 1669.72 1094.6C1674.48 1091.43 1678.39 1087.14 1681.1 1082.1C1683.82 1077.07 1685.25 1071.44 1685.28 1065.72C1685.56 1051.24 1685.28 1036.76 1685.28 1022.28V974.281C1685.28 973.549 1684.99 972.846 1684.47 972.329C1683.95 971.811 1683.25 971.521 1682.52 971.521C1681.79 971.521 1681.09 971.811 1680.57 972.329C1680.05 972.846 1679.76 973.549 1679.76 974.281V974.24Z" fill="#FF725E"/>
<path d="M1557.8 552.28H1645.8C1653.88 551.728 1661.87 554.226 1668.2 559.28C1671.54 562.288 1674.17 566.003 1675.9 570.154C1677.63 574.305 1678.42 578.788 1678.2 583.28V676C1678.2 676.732 1678.49 677.434 1679.01 677.951C1679.53 678.469 1680.23 678.76 1680.96 678.76C1681.69 678.76 1682.39 678.469 1682.91 677.951C1683.43 677.434 1683.72 676.732 1683.72 676V584.4C1684.11 576.65 1682.17 568.961 1678.16 562.32C1674.99 557.559 1670.7 553.651 1665.66 550.938C1660.63 548.224 1655 546.79 1649.28 546.76C1634.8 546.52 1620.32 546.76 1605.84 546.76H1557.84C1557.11 546.76 1556.41 547.051 1555.89 547.568C1555.37 548.086 1555.08 548.788 1555.08 549.52C1555.08 550.252 1555.37 550.954 1555.89 551.472C1556.41 551.989 1557.11 552.28 1557.84 552.28H1557.8Z" fill="#FF725E"/>
</svg>
